<svg id="图层_1" data-name="图层 1" xmlns="http://www.w3.org/2000/svg" viewBox="0 0 475 475"><defs><style>.cls-1{fill:#fefefe;}.cls-2{fill:#f8f8f8;}.cls-3{fill:#cfcfcf;}.cls-4{fill:#f2f2f2;}.cls-5{fill:#f5f5f5;}.cls-6{fill:#c6c6c6;}.cls-7{fill:#c5c5c5;}.cls-8{fill:#b1b1b1;}.cls-9{fill:#d7d7d7;}.cls-10{fill:#efefef;}.cls-11{fill:#f4f4f4;}.cls-12{fill:#e2e2e2;}.cls-13{fill:#9a9a9a;}.cls-14{fill:#f6f6f6;}.cls-15{fill:#fdfdfd;}.cls-16{fill:#e7e7e7;}.cls-17{fill:#fcfcfc;}.cls-18{fill:#414141;}.cls-19{fill:#010101;}.cls-20{fill:#a4a4a4;}.cls-21{fill:#a5a5a5;}.cls-22{fill:#ededed;}.cls-23{fill:#717171;}.cls-24{fill:#b2b2b2;}.cls-25{fill:#787878;}.cls-26{fill:#2f2f2f;}.cls-27{fill:#404040;}.cls-28{fill:#cdcdcd;}.cls-29{fill:#f0f0f0;}.cls-30{fill:#d0d0d0;}.cls-31{fill:#fbfbfb;}.cls-32{fill:#eee;}.cls-33{fill:#f1f1f1;}.cls-34{fill:#a3a3a3;}.cls-35{fill:#747474;}.cls-36{fill:#b0b0b0;}.cls-37{fill:#bdbdbd;}.cls-38{fill:#989898;}.cls-39{fill:#090909;}.cls-40{fill:#898989;}.cls-41{fill:#c4c4c4;}.cls-42{fill:#f3f3f3;}.cls-43{fill:#d4d4d4;}.cls-44{fill:#707070;}.cls-45{fill:#ccc;}.cls-46{fill:#d5d5d5;}.cls-47{fill:#9d9d9d;}.cls-48{fill:#cecece;}.cls-49{fill:#767676;}.cls-50{fill:#6a6a6a;}.cls-51{fill:#2e2e2e;}.cls-52{fill:#d2d2d2;}.cls-53{fill:#c2c2c2;}.cls-54{fill:#bfbfbf;}.cls-55{fill:#6f6f6f;}.cls-56{fill:#dfdfdf;}.cls-57{fill:#878787;}.cls-58{fill:#121212;}.cls-59{fill:#6c6c6c;}.cls-60{fill:#dcdcdc;}.cls-61{fill:#777;}.cls-62{fill:#e6e6e6;}.cls-63{fill:#adadad;}.cls-64{fill:#b6b6b6;}.cls-65{fill:#e9e9e9;}.cls-66{fill:#343434;}.cls-67{fill:#e8e8e8;}.cls-68{fill:#8a8a8a;}.cls-69{fill:#eaeaea;}.cls-70{fill:#9f9f9f;}.cls-71{fill:#aeaeae;}.cls-72{fill:#c7c7c7;}.cls-73{fill:#ddd;}.cls-74{fill:#6e6e6e;}.cls-75{fill:#888;}.cls-76{fill:#d1d1d1;}.cls-77{fill:#626262;}.cls-78{fill:#737373;}.cls-79{fill:#757575;}.cls-80{fill:#ececec;}.cls-81{fill:#222;}.cls-82{fill:#e1e1e1;}.cls-83{fill:#acacac;}.cls-84{fill:#3f3f3f;}.cls-85{fill:#333;}.cls-86{fill:#686868;}.cls-87{fill:#2a2a2a;}.cls-88{fill:#3c3c3c;}.cls-89{fill:#2d2d2d;}.cls-90{fill:#393939;}.cls-91{fill:#2b2b2b;}.cls-92{fill:#616161;}.cls-93{fill:#727272;}.cls-94{fill:#454545;}.cls-95{fill:#b8b8b8;}.cls-96{fill:#252525;}.cls-97{fill:#272727;}.cls-98{fill:#474747;}.cls-99{fill:#f9f9f9;}.cls-100{fill:#171717;}.cls-101{fill:#020202;}.cls-102{fill:#0c0c0c;}.cls-103{fill:#030303;}.cls-104{fill:#dadada;}.cls-105{fill:#e3e3e3;}.cls-106{fill:#585858;}.cls-107{fill:#575757;}.cls-108{fill:#7b7b7b;}.cls-109{fill:#5e5e5e;}.cls-110{fill:#7a7a7a;}.cls-111{fill:#656565;}.cls-112{fill:#979797;}.cls-113{fill:#050505;}.cls-114{fill:#111;}.cls-115{fill:#dbdbdb;}.cls-116{fill:#0f0f0f;}</style></defs><path class="cls-1" d="M6923.1,2705q0-101.46-.1-202.92c0-3.42.67-4.09,4.09-4.09q233.41.16,466.82,0c3.42,0,4.09.67,4.09,4.09q-.16,233.41,0,466.82c0,3.42-.67,4.09-4.09,4.09q-233.41-.16-466.81,0c-3.43,0-4.1-.67-4.1-4.09q.18-130.95.1-261.9c2.12-1,4.09-.29,5.9.76a109.56,109.56,0,0,0,14.23,6.44c3.83,1.54,4.57,3.67,2.66,7.37-2.36,4.58-4.65,9.21-8.29,13-1.35,1.4-3,3.17-1.64,5.25s3.69,1.17,5.53.61c12.54-3.77,24-10,35-16.82,14.79-9.16,28.65-19.56,40.83-32.08.44-.45,1-.87,1.45-1.28,1.13-1,2.43-1.81,4-.84s1.39,2.43.91,4c-1.06,3.31-1.84,6.1.85,9.64,2,2.6.1,7-1.22,10.16a305.57,305.57,0,0,1-16.78,33.27c-9,15.91-20.19,30.46-29.13,46.4-8.76,15.6-16.46,31.69-17.91,49.9-.53,6.57-.7,13.08-2.59,19.55-1.33,4.54,1.18,9.55-.3,13.67.08-1.09.3-2.83.54-4.53a4.49,4.49,0,0,1,3.78-4c2.38-.37,3.06,1.52,3.68,3.29,2.58,7.42,5,15,9.56,21.44,5.44,7.65,11.38,14.84,20.1,19.18a19.1,19.1,0,0,0,7.07,2c.38-1.63-.71-2.61-1.34-3.69-8.26-14-8.93-29.06-6.34-44.59.28-1.69.92-3.35,3-3.48s2.81,1.63,3.24,3.2c2.29,8.37,4.69,16.63,9.72,23.92,5.53,8,12,14.9,20.68,19.61,1.34.72,2.59,1.85,3.95.54s.22-2.71-.67-3.91a60.83,60.83,0,0,1-6.29-11.29c-.88-1.94-1.37-4,.91-5.23s3.37.46,4.59,2.22c3.35,4.82,6.9,9.47,12.11,12.6a4.85,4.85,0,0,1,2.24,6.06c-3.88,11.48,7.84,27,21.12,28.74a51.53,51.53,0,0,0,20.28-1.2c9.25-2.47,18,.07,25.49,4.35a36.2,36.2,0,0,0,16.65,4.72c8.3.44,8.33.18,10.83,8.11.7,2.23,1.12,4.56,2.24,6.62,1.41,2.61,3.21,4.68,6.53,5.13,7.9,1,9.7-.28,10.22-8,.1-1.5.13-3,.31-4.49.33-2.84,1.73-4.27,4.77-4.33,4.28-.08,8.64-.26,9.83-5.83a2.19,2.19,0,0,1,2.76-1.57c1.29.28,1.67,1.33,2.27,2.38,3.07,5.39,5.86,10.74,6.9,17.08.57,3.48,4.44,4.44,7.79,3.76,3-.61,5.62-2.33,5.2-6-.54-4.79,2.15-8.88,2.66-13.43.2-1.78,1.35-2.66,3.43-2.75,1.81-.08,3.67-.18,5.47-.23,5.14-.15,9.19-1.8,11.14-6.87.39-1,.54-2.32,1.58-2.61,9.14-2.51,16.62-11.2,27.73-6.64,5.69,2.34,11.91,1.74,17.84-.52,5.72-2.19,8.63-6.15,8.67-12.31,0-1.95-.06-3.92.06-5.84a8.12,8.12,0,0,1,4.53-7.38c15-8.1,20.79-21.42,20.49-37.87,0-1.87-1-4,1.59-4.56,2.12-.51,2.51,1.58,3.25,3,5.3,10.11,7.68,21.08,9.19,32.25.44,3.19-.4,6.43-1.2,9.1a7,7,0,0,1,2-2.67c7.39-6.39,8.53-15.15,9.14-24.09a49.2,49.2,0,0,0-2.17-19.75c-.54-1.58-1.37-3.73.91-4.71,2.08-.89,4.61-2.15,6.4.3,7.2,9.84,13.64,20,13.13,32.31a5.38,5.38,0,0,1,1.63-1.86c3.34-2.22,4.42-5.62,4.57-9.27.39-9.68-2.88-17.73-11.16-23.31-3.78-2.55-4.36-5.69-1.27-9.26,1.56-1.8,2.88-3.2,1-5.53-.65-.83-.26-1.88.11-2.86,1.11-2.91-1.12-4.17-2.38-6.34-2.75-4.75-7.9-4-11.12-6.95-1.2-1.1-2.48-.7-3.73-.24-4.05,1.5-6.08-.42-7.71-4-6.23-13.62-12.41-27.26-19-40.73-4.11-8.43-8.09-16.91-12.95-24.94a6,6,0,0,1-.89-4.24c.39-2.6,1.34-5.09,1.57-7.7.26-3,1.86-4.11,4.68-4.37,7.62-.71,9.61-2.84,9.82-10.32.08-2.61.56-4.29,3.7-5.22,8.46-2.51,10.26-10.17,4-16.67-2.29-2.37-2.14-3.82-.06-6.21,6-6.88,2.63-18-6.13-20.6-2.46-.74-4.93-1.5-3.31-4.62,4.53-8.68.07-15.65-3.91-22.78a8.63,8.63,0,0,0-1-1.1c-4.53-5.89-4.52-5.9-10.19-1-4.47,3.81-6.21,3.45-8.42-2.22a122.49,122.49,0,0,0-9.36-19.36c-2.13-3.5-.9-5.41,2.08-7.31,5.29-3.38,10.27-7.24,15.58-10.59,8.53-5.37,11.51-13.6,10.8-23-1.42-18.87-10.09-33.83-25.57-45-14-10.08-30.2-15.27-46-21.27a37.2,37.2,0,0,1-7.46-3.74c-6.36-4.18-13.08-7.9-20.93-3.23a4.19,4.19,0,0,1-3.87.24c-10.87-4.83-22.53-4.35-34-4.58a134.8,134.8,0,0,0-32.06,3.31c-16,3.58-29.86,11.66-42.79,21.48a81.23,81.23,0,0,0-9.63,7.92c-2.1,2.17-4.44,2.34-7.31,1.56a70.12,70.12,0,0,0-21.76-1.91c-11.14.5-21.58,3.62-32.29,5.87-5.63,1.18-8.44,4.14-9.46,9.4a95.8,95.8,0,0,0-1.75,24.88,159,159,0,0,0,11.94,51.29,11.23,11.23,0,0,1,.92,4.66,17.5,17.5,0,0,0,.64,6.54c1.95,5.23,3.76,9.75-1.78,14.58-2.82,2.46-1.83,7.57-1,11.5,1.66,7.61,1.71,7.5-5.22,11.16-21.31,11.26-43.8,19.66-66.4,27.8-2.35.85-4.7,1.69-7,2.57C6927.83,2706.89,6925.29,2707.11,6923.1,2705Z" transform="translate(-6923 -2498)"/><path d="M6923.1,2705c4.35.3,7.9-2.15,11.76-3.47a749.29,749.29,0,0,0,70.38-28.49c2.89-1.33,4.16-2.61,2.86-5.81-1.46-3.61-1.18-7.55-1.39-11.33-.15-2.82-.18-6.22,3.83-7.13,2.54-.58,1.81-2,1-3.6-2-3.87-2.58-7.92-2.68-12.37-.13-5.9-3.23-11.31-5.26-16.8-6.33-17.17-8.13-34.81-6.69-52.9.46-5.86-.66-12,2.87-17.4a11,11,0,0,1,6.07-4.8c3.26-1.07,6.5-2.26,9.82-3.1,9.86-2.49,19.8-4.93,30-4.62,6.38.2,12.91.11,19,2.46,1.78.68,3.21.59,4.51-.82,8.85-9.51,20.36-15,31.36-21.47,15-8.75,31.24-10.78,48-11.49,11.6-.49,23.16-.51,34.58,2.06,4.59,1,8.64,3,14.08.59s11.94.09,16.87,3.71c5.35,3.94,11.72,5.17,17.56,7.72,17.43,7.6,36.16,13.14,48.84,28.43,10.06,12.12,16.55,26,14.59,42.5-1.28,10.78-8.69,17.16-17.13,22.55-4,2.56-7.07,6.4-11.7,8.08-1.73.63-1.12,1.83-.24,3.17,4,6.2,7.82,12.54,9.59,19.86.4,1.64,1.55,3.42,3,3.64,2,.29,2.31-2,3.07-3.43,3.16-5.82,4.5-6.09,9-1.27a42.86,42.86,0,0,1,11.19,23.4c.53,3.43-.77,5.69-5.26,7.75,9.36.35,13.46,5,15,12,1.25,5.5-.6,10.14-5.37,13.73a14.83,14.83,0,0,0,1.25,1.4c8.32,7.18,6.85,16.18-3.44,19.92-2.16.78-3.24,1.11-3.09,3.85.37,6.91-3.83,11.7-10.81,12.31-2.62.23-3.06,1.32-3.73,3.43-1.59,5-1.38,9.41,1.38,14.12,11.84,20.17,21.48,41.46,31,62.8.85,1.91,1.44,3.49,3.72,1.5a3,3,0,0,1,1.29-.68c2.48-.59,12.9,4.62,13.77,7a2.58,2.58,0,0,0,1.76,2c3.65,1.36,3.29,4.05,3.71,7.64.61,5.29-1.27,8.77-3.6,12.69-1.09,1.84.8,2.1,1.83,2.77,9.76,6.29,14,15.14,12.62,26.72a10.68,10.68,0,0,1-2.22,6c-3.33,3.67-5.34,8.56-10,11.19,3.95-6.83,2.86-13.53.42-20.33a79.11,79.11,0,0,0-9.13-17.06c-1.59-2.39-3.84-2.29-5.65-1.41s.15,2.42.45,3.68c4,17.38,4.37,34-9.91,47.54a26.41,26.41,0,0,0-2.09,2.77,11.19,11.19,0,0,1-2.69,2.46c6-17.91-.34-33.85-7.23-49.76a54.93,54.93,0,0,1-2.95,21.8,40,40,0,0,1-18.91,21.66c-2.34,1.29-3,2.57-3,4.94,0,3.47,0,6.93-1.12,10.35-2.44,7.3-6.35,10.6-14.18,11.25a37.07,37.07,0,0,1-14.32-1.23c-4.45-1.39-8.7-1.61-12.82,1.2a17.38,17.38,0,0,1-5,2.07c-4.58,1.33-8.58,2.72-10.79,7.94-2.07,4.87-7.5,5.25-12.17,4.94-4.49-.3-6.11,1.42-6.71,5.64s-1.11,8.55-2.68,12.62-4.94,5.14-8.86,4.73-7.83-1.36-7.94-6c-.16-7.05-4.7-12.3-6.83-19.07-.9,7.4-5.82,9.07-11.81,9.1-2.29,0-2.85,1.12-2.77,3.1a33.77,33.77,0,0,1-.08,4.5c-.69,7-2.84,9.06-10,9.92a10.79,10.79,0,0,1-12.09-7.81c-1.26-4.07-1.07-9.73-3.77-11.9s-8.26-1-12.55-1.37c-4-.36-7.36-2.22-11-4-8-3.93-16.68-6.59-25.83-4.12a41.89,41.89,0,0,1-24-.21c-13.71-4.28-20.81-15.27-18.39-29.25.38-2.21,0-3.47-1.57-4.58a45.69,45.69,0,0,1-13.83-15.49c-.19-.33-.79-.43-1.91-1,1,9.91,7.55,15.93,13.2,22.88-4.31,2-8,.49-11.4-1.29-13-6.74-21.54-17.45-27-30.79-2.19-5.36-4-10.89-6.08-16.76-1.91,2-1.52,4.32-1.9,6.41-2.72,15.28.44,29.32,9,42.22,1.19,1.8,1.19,1.8,5.65,3.17-5.12,3.07-9.82,1.83-14.25-.46-12.4-6.4-21.15-16.42-27.18-28.82-2.58-5.31-4.42-11-6.77-16.89-3.21,4.64-3.42,9.64-3.08,15.15-2.78-1.26-2.68-3.6-2.79-5.46a127,127,0,0,1-.2-14.47,164.44,164.44,0,0,1,30.58-87.79,361.91,361.91,0,0,0,32.85-55.61c2.14-4.55,3.31-9.37,4.55-14.19.16-.63.46-1.76.25-1.88-7.38-4.21-.64-9.14-1-14a19,19,0,0,0-3.75,3c-19.09,20.26-41.91,35.16-67.13,46.54-5.41,2.44-11,4.51-17.18,4.49-4,0-4.15-1.92-3-4.6a16.32,16.32,0,0,1,3.77-5.8c4.49-3.82,6.15-9.41,9.37-14,1.8-2.57-.46-3.12-2.13-3.73a111,111,0,0,1-19.26-9Z" transform="translate(-6923 -2498)"/><path class="cls-2" d="M7057.36,2625.94c-2-2.13-3.44-5.24-7.28-3.71-1.77,3.14-.36,7.18-2.85,10.13a30.87,30.87,0,0,1-21.55,3.7c-12.33-2.19-13.12-5.84-11.73-17.24a36.09,36.09,0,0,1,4.17-16.3,125.85,125.85,0,0,1,28.11-36.4c5.87-5.3,10.33-12.46,16-18.28,9.2-9.42,18.87-18.36,29.89-25.58,26.21-17.18,55.34-19.25,85.41-15.69,3.08.36,6.26.56,9.41,2-1.25,2.8-4.35,4.24-5.08,7.24-.28,1.15-.66,2.5.82,2.95s1.26-1,1.75-1.82c2.66-4.22,7-5.26,10.51-1.8,12.15,11.9,18.51,26.44,19.2,43.75-3.79-.14-6.66-2.61-10.09-1.79-4.19,3-7.48-.33-9.8-.92a46.36,46.36,0,0,1,17.2,10.79c.62,1,.79,2.14,1.42,3.1.49,3.82-1.18,3.84-4.35,3-31.66-8.32-61.86-3.91-90.62,11.14-7.78,4.07-14.75,9.52-21.65,15-4-.17-3.25-2.76-2.58-5.23,2.87-10.56,8-20.05,12.95-27.69-3.73,6.6-8.89,14.35-13.64,22.37a28.34,28.34,0,0,0-7.53,10.26,8,8,0,0,1-3.38,4.15l-3.09,6c-3.47,6.62-8,12.31-14.47,16.23C7062.23,2626.65,7060,2628.24,7057.36,2625.94Z" transform="translate(-6923 -2498)"/><path class="cls-3" d="M7013.24,2822c-1.41-6,1.49-9.21,6.25-12.91,19-14.74,33.22-33.59,43.77-55,2.87-5.81,7.93-3.42,11.73-5.32,2.22-1.12,2.89,2.94,4,4.74,6.86,10.79,14.62,20.62,27.2,26.49-1.11-5.47-5.17-9.2-6.28-14.5,2.56,1,3.57,3,5,4.47,5.88,6,12.18,11.38,19.64,15.28,2.29,1.2,3.2,2.06.72,4.1a31.41,31.41,0,0,0-5.15,5.41c-1.38,1.83-2.72,2.59-5.05,1.88-4.82-1.48-7.93.83-10.19,4.93a51.7,51.7,0,0,0-4.77,14.15c-1.07,4.94-3.65,8.43-7.63,11.7-14.72,12.09-27.1,26-32.52,45a125.93,125.93,0,0,1-9.82,25.07c-2,3.67-4.12,3.74-7.23,2a16.51,16.51,0,0,1-4.64-4.48c-9.07-11.72-13.49-25.1-14.15-39.81-.07-1.49-.12-3-.2-4.46,0-.11-.18-.21-.27-.32-4.88,11.82-.69,37.66,9.82,58l-5.73-4.14c-5.2-6.06-10.35-12.07-13.76-19.49-6.91-15-6.36-30.45-3.55-46.14.24-1.34,1.18-2.34,1.48-3.61C7013.76,2830.71,7014.82,2826.46,7013.24,2822Z" transform="translate(-6923 -2498)"/><path class="cls-4" d="M7098.1,2827.14c5.11-3.4,10.29-6.57,16.28-8.37,7.68-2.32,14.22-7.19,21.61-10.19,2.21-.9,4.63-3.32,6.84-1.34,1.66,1.48-.18,4-.5,6.07-3,19.18-1.43,38.09,3,56.9,1.74,7.44,3.49,14.9,3.81,22.59,1.21,3.56-.23,6.09-3.22,7.9-5.43,3.31-10.75,6.91-16.88,8.75a25.48,25.48,0,0,0-7.73,4.32c-9,2.47-17.84,5.47-27.41,4.65a56.31,56.31,0,0,1-12.23-2.23c-3.27-1-5-3.06-5-6.57a62.57,62.57,0,0,1,.18-9c1-7.07,2.82-14,3.5-21.13,3.21-7.46,4.3-15.49,6.16-23.32.82-3.49,2-6.9,2.91-10.36,2.19-3.54,1.11-7.92,2.94-11.56C7094.2,2831.83,7096.14,2829.48,7098.1,2827.14Z" transform="translate(-6923 -2498)"/><path class="cls-5" d="M7252,2619.13l3,4.83c-.9,7.45-4.41,9.36-13.42,7.3-3.23-6.78-6.16-13.73-12.12-19l3.54,7.17c-2,1-3.48-1.66-5.52,0,4.4,2.89,7.94,6.52,9.6,11.62-.84,1.31-2.15,1.43-3.51,1.42-.84,0-1.72-.61-2.39-.5-11,1.84-16.25-3.92-18.39-13.83-1.23-2.5-2.44-5-3.74-7.48-.17-.31-.8-.39-1.81-.84,2.36,7.91,5.33,15.23,4.9,23.19-.09.27-.18.54-.26.81-1.07,2-3,1.71-4.81,1.73-4.13.05-8.26,0-12.39.14a2.72,2.72,0,0,1-1.53-.66c-1.16-8-3-15.86-7.14-22.95.56,5.37,2.87,10.33,3.11,15.72.36,2.25,1.31,4.8-1.24,6.25-2.11,1.2-3.81.12-4.84-2-2.31-5.51-2.42-11.55-4.09-17.22-.5-1.68-.39-3.62-2-4.89-2.08-.08-1.32,1.29-1.25,2.37.37,5.51,1.18,11,1.31,16.5.09,3.75-.63,6-5,6.08a11.34,11.34,0,0,0-7,2.2c-6.33.14-12.55,2.59-19,1-.85-5.64-1.48-11.29-.05-16.95.74-2.67,3.52-2.63,5.07-3.87-1.27.49-2.52,1.67-4.23,1.61-2.12-.93-1.08-2.85-1.39-4.36-.18-.87.77-2.48-1.32-2.25-.77,3.7.22,7.92-3.13,10.88a15.77,15.77,0,0,1-.76,1.61c.68-.12,1.34-.34,2-.47,1.05,4,0,7.87-.33,11.79-4.72,3.72-10.54,4.22-16.11,5.29-2.24.43-3.83-.87-3-3.6q1.72-11.35,3.44-22.71c-4.32,8.6-5.51,17.92-7.47,27-3.47,4.43-9,6-13.23,9.35a3.7,3.7,0,0,1-3.51-.6,2.74,2.74,0,0,1-.52-2.31c-.05.81-.1,1.63-.19,2.44a2.4,2.4,0,0,1-1,1.63,3,3,0,0,1-1.4.28c-4.11-3.14-5.52-8.39-9.21-11.87,1.28-3.62,1.37-7-1.73-9.89-1-2.25.54-3.4,1.92-4.73a111.22,111.22,0,0,1,49.56-28.29,162.59,162.59,0,0,1,33.17-5.13,151.73,151.73,0,0,1,25.21.71c1.85.22,4.38.28,4.09,3.38l-1.95,2.68c3.32-.1,4.7-2.78,7-3.61a11.15,11.15,0,0,1,5.9-.11c14,2.93,26.47,9.25,37.94,17.65C7252.81,2615,7253.76,2616.86,7252,2619.13Z" transform="translate(-6923 -2498)"/><path class="cls-3" d="M7299.18,2843.1c2.2,10.11,3.64,20.19,1.87,30.63-2,11.88-8.86,19.66-19.71,25.32-.52-3.75-1.28-7.11-1.41-10.49-.68-17.6-7.24-33.17-15.06-48.68-5-9.83-13-16.5-19.86-24.39a16.37,16.37,0,0,1-3.77-6.65c-1.31-4.61-3.51-9-5.36-13.43-.94-2.26-3.11-3.19-4.9-2.2-4.66,2.57-6.57-.36-9-3.42-2.31-2.89-4.21-4.91.93-6.92,3.08-1.2,3.37-3.92.89-6.4-1.75-1.75-3.64-3.36-6.13-5.65,8.06-1.78,15.15-4.9,22.43-7.49,3.68-1.31,3.73,1.23,3.42,3.88-1.22,10.25-4.31,19.27-15.26,23.43a19.14,19.14,0,0,0,13.31-1.58,45,45,0,0,0,17.39-15.38c1.87-2.82,3.07-2.65,5.08-.25,6.32,7.52,12.81,14.9,19.19,22.38,8.32,9.75,16.58,19.56,26.13,28.17-4.75,5.35-4.21,12.38-.54,18.74,3.15,5.44,7.13,8.4,13,9.34,1.22.2,1.44,1.34,1.67,2.26,3.35,13.56,3.8,27-2.42,40-1.86-4.19-.35-8.66-1.26-13-2-9.69-6.13-18.4-10.85-26.86-7.19-12.87-15.61-25-22-37.4-.8-1.26-.87-.07-.46-.6.11-.14.27-.07.43.25C7291.2,2825.37,7296.13,2833.8,7299.18,2843.1Z" transform="translate(-6923 -2498)"/><path class="cls-6" d="M7243.91,2819.18c14.73,11.07,21.84,26.75,26.74,43.83,4.8,16.72,8.57,33.51,6.36,51.12-.43,3.48-1.51,5.9-4.49,7.71-6.62,4-13.36,5.32-21,2.7-14-4.84-24.43-13.27-29.73-27.44a12.12,12.12,0,0,1-.92-4.32c0-6.82,0-13.64-.07-20.47-.76-2.78-.24-5.63-.36-8.44s1.6-3.49,3.91-2.73a37.17,37.17,0,0,1,7.16,3.52c6.34,3.78,12.93,7.11,19.39,10.67,1.67.92,3.78,3.21,5.94.45-.18-6.63-2.1-12.92-3.7-19.25-.76-3-1.56-6.05-2.08-9.13.52-4.81,1.25-9.69-4.17-12.55-2.19-3.2-3.26-6.88-4.52-10.48C7241.7,2822.32,7241.71,2820.42,7243.91,2819.18Z" transform="translate(-6923 -2498)"/><path class="cls-7" d="M7083,2880.52a11.79,11.79,0,0,0-.68,6.83c.86,4.26-2.5,7.51-2.82,11.74-1.1,14.66-2.05,15,14.25,16.81,9.55,1.07,18.39-2.15,27.28-5,7-.72,13.85-3,21-3.15,2,0,4.41-1.23,4.95,2.1-7.11,9.65-17.1,14.79-28.47,17-9.19,1.75-18.1,4.31-27,6.92-7.23,2.11-14.56,3.32-22.17,2.19-5.3-.78-9.56-2.69-13.14-7-9.44-11.52-10.44-17.09-3.52-30.34,5.19-9.93,8.09-20.75,12.69-30.92a116,116,0,0,1,18.61-28.75c4.62.66,3.41,4.37,3.14,6.93-.49,4.51-2.14,8.9-1,13.52C7084.94,2866.39,7083.18,2873.34,7083,2880.52Z" transform="translate(-6923 -2498)"/><path class="cls-3" d="M7118,2709c2.35,13.91,4.63,27.85,11,41.41-2.8-.43-3.65-2.14-4.67-3.4a88.42,88.42,0,0,1-14-24.67c-.47-1.25-.61-3.64-2.55-2.95-1.47.53-.68,2.48-.25,3.92,2.52,8.43,4.87,16.93,7.46,25.34a119.34,119.34,0,0,0,16.66,33.93c.83,1.18,2.16,2.13,2.13,4.83-25.38-12.15-39.21-33.68-50.73-57.5-.33,5.51,2,10.06,4,14.72s3.74,9.61,5.88,14.29,4.73,9.43,6.64,14.39a100.15,100.15,0,0,1-30.43-57.32c2.5-5.92,7.74-8.54,13.23-10.73,1.95-.78,4.12-1.25,6.05.32.49,3.51,1.83,6.91,1.53,10.18,1.19-3.45-3.06-7.3.14-11.1a8.79,8.79,0,0,1,5.94-2c5.67-.24,11.15.91,16.6,2.25A8.85,8.85,0,0,1,7118,2709Z" transform="translate(-6923 -2498)"/><path class="cls-2" d="M7231,2566a50.12,50.12,0,0,0,3-16,56,56,0,0,0-2.52-16.67c-1.56-5.19-4.19-9.94-6.79-15,22.75,7.57,44.3,16.19,58.29,36.75,1.81,7.09-3.46,10.69-7.77,14.12-3.27,2.59-7.42,4.29-11.47,5.83a57.94,57.94,0,0,1-26.27-2.67C7234.51,2571.34,7230.46,2570.85,7231,2566Z" transform="translate(-6923 -2498)"/><path class="cls-5" d="M7087.91,2706c-6.31,2-12.32,4.52-16.88,9.64-.33.37-1.19.27-1.81.38-1.64-7.75-1.48-15.66-2.05-23.51-.22-3,2.68-5.33,1.87-8.47,3.73-1.08,7.58-.12,11.34-.65,1.89-.26,4-.15,5.55-1.57l-.08,0c4.89-2.93,8.15-7.25,10.5-12.33.55-1.17.68-2.86,2.42-2.57s1.64,1.84,1.72,3.18c.11,1.81-.13,3.64.37,5.41a11,11,0,0,1,.16,2c.12-1.33-.43-2.57-.47-3.9.05-5.66-.24-11.32.17-17a3.72,3.72,0,0,1,.79-1.48c4.07-3.08,9.26-3.08,13.85-4.28,3.74-1,1.63,3.3,1.77,5.36A358.8,358.8,0,0,0,7118,2709c-9.13-2.51-18.2-5.5-27.87-3Z" transform="translate(-6923 -2498)"/><path class="cls-4" d="M7253.94,2846.83q2.6,12.69,5.17,25.37c.32,1.6.93,3.26-.14,4.84-1.5,1.61-3,.52-4.38-.1a95.55,95.55,0,0,1-31-21.52c-1.78-1.87-2.32-4.34-3.51-6.49q-.3-10.2-.62-20.39a58.24,58.24,0,0,0-1.41-12.35c-1-4-1.69-8.24-7-9.69,7.55-4.07,22.07,1.85,32.81,12.68.52,5.32,2.88,10,5,14.81,3.13,1.67,2.41,5.09,3.51,7.68C7253.1,2843.35,7253,2845.25,7253.94,2846.83Z" transform="translate(-6923 -2498)"/><path class="cls-5" d="M7011.16,2810.18l-3.5,2.94c-.55-4.55-2-7.72-8.16-4.84,6.55-13.34,10.33-26.37,15.18-39,5.32-13.83,8.72-28.23,13.32-42.27a15,15,0,0,1,1.21-3.26c1-1.62,2.69-1.81,4.41-1.55s1.57,1.76,1.65,3.08c.4,6.6,3.47,11.3,9.78,13.68,2.08,1.59,1.89,3.69,1.32,5.87-4.51,17.11-10.3,33.74-20.12,48.58A73.91,73.91,0,0,1,7011.16,2810.18Z" transform="translate(-6923 -2498)"/><path class="cls-8" d="M7094,2606c11.37-12,25.68-19.22,40.79-25.3,22.25-8.95,44.92-11.64,68.45-6.21,4,.93,6.18,3,6.57,6.94.53,5.46-1.7,7.2-7,6.3-22.76-3.92-45-1.8-67,5.16-15.81,5-29.68,13.31-42.81,23.13-3.11-.34-2.39-2.37-2-4.35C7091.52,2609.51,7093.08,2607.94,7094,2606Z" transform="translate(-6923 -2498)"/><path class="cls-9" d="M7231,2566c3.64,5.23,9.83,4.09,14.84,5.75,5.92,2,12.16,1.34,18.28.34a27.12,27.12,0,0,0,17.31-5.5c1.68-1.24,3.2-3.13,5.67-1.61a44.44,44.44,0,0,1,3.78,15.88c.89,12.39-3.4,19.25-14.71,24.35a91.24,91.24,0,0,0-10.13,5.32c-1.92,1.18-2.79,1.63-3.94-.93-6.76-15-17.37-27-29.77-37.56C7230.16,2570.26,7228.55,2568.68,7231,2566Z" transform="translate(-6923 -2498)"/><path class="cls-5" d="M7278.1,2719c-1.82-5.34-.79-10.89-1.11-16.34-.21-3.42-.26-6.84-1.66-10.07-.8,8.17.14,16.39-1.28,24.5-1.61,1.31-3.43.88-5.24.64-5.54-.72-10.6-.23-14.09,5-1.16,1.74-2.91,3.08-4.59.25,1.46-18.29,3.23-36.57,3-55,1.37-2.82,3.21-3.38,5.9-1.52a23.76,23.76,0,0,0,16.86,4c1.9-.22,3.81-.76,4.87,1.54,3.43,16.86,5.29,33.82,3.3,51C7279.93,2724.82,7279.81,2720.74,7278.1,2719Z" transform="translate(-6923 -2498)"/><path class="cls-10" d="M7052,2624.05c3.69,3.8,4.61,9.47,8.78,12.93-2.49,5.47,6.72,8.87,1.68,15.12,3-.82,3.53-2.53,4.12-4.16.42-1.16,1.3-2.67,2.3-2.25,4.87,2,4.73-1.77,6-4.5,2-4.09,7-4.65,10-7.74.78-.81,2,.68,2.53,1.75,1,2,1,4.11-.51,5.61-1.86,1.84-3.9,3.32-2.89,6.39a1.9,1.9,0,0,1-.43,1.31c-6.53-.58-7.47,11.64-15.91,6,.18,2.58,1.59,2.87,2.73,3.26,1.44.49,3.32.92,3.72,2.26,1.84,6.18,7.58,9.18,10.94,14.07,1.05,1.54,1.89,3.6.23,5-1.87,1.57-3.38-.44-4.67-1.51-5.73-4.74-11.36-9.61-17.55-14.21,3.18,4.44.68,9.88,3.36,14.69,1.17,2.1-.67,6.28-.49,9.59.06,1.07-1.14,1.49-2.28,1.27a3.61,3.61,0,0,1-3.2-2.77c-1-5.69-.55-11.72-4.13-16.82-.48-.68-.18-1.91-.54-3-1,3.51-6.47,4-5.5,8.85.08.41-1.09,1.51-1.71,1.55-3.25.19-4,2.13-4.2,5a2.61,2.61,0,0,1-2.62,2.55c-1.54.07-2.35-1-3.09-2.15-1-1.59-.09-2.37,1.12-3.22a3.9,3.9,0,0,0,1.41-1.92c2-7.1,6.22-12.74,11.79-18.24-4.31.76-8.54,1.58-10.17-3.69-4.2,1.39-6.61-3.16-10.42-3.13a5.59,5.59,0,0,1-4.1-1.58,3.16,3.16,0,0,1-.62-4.1c.92-1.46,2.28-.71,3.59-.41s2.27,3.34,3.86.44c.65-2.56,2.4-3.41,4.46-2,3.63,2.51,7.81,2.18,11.77,3.15a5,5,0,0,0-.41-4.51c-3-4.58-2.09-9.82-2.82-14.77C7047.76,2625.51,7048.07,2622.8,7052,2624.05Z" transform="translate(-6923 -2498)"/><path class="cls-8" d="M6953.16,2701.16c17.19-7.15,34.44-14.17,50.7-23.34,4.05.6,1.9,3.1,1.23,4.71a90.75,90.75,0,0,1-11.91,20,106.8,106.8,0,0,1-13.08,14.52c-12.51,8.57-26.27,14.66-40.54,20.32,4.16-5.5,6.36-12,10.62-17.36-.39-5.27,2.66-8.46,6.62-11.2a16.74,16.74,0,0,0,5.1-5C6959.14,2701.7,6954.63,2707,6953.16,2701.16Z" transform="translate(-6923 -2498)"/><path class="cls-7" d="M7205,2907.1a36.29,36.29,0,0,0,9.68-6.9c1-1.06,2.62-2.76,3.6-.88,1.87,3.6,4.88,7,4.92,11.17s-1.51,7.71-6.35,8.88c-5,1.2-9.44,3.16-12.92,7.54-3.29,4.13-8.44,3-13.07,2.24-1.51-.24-1.6-1.51-1.68-2.67-1.25-19.22-6.43-37.95-7.21-57.23-.12-2.81-.27-5.65.88-8.34,3.67-2.16,6.57-1.53,8.61,1.89.58,1,.72,2.21,1.71,3a172.59,172.59,0,0,1,5,36c1.18.89,1.29,2.21,1.44,3.51,1.58,4.15.29,8.29,0,12C7201,2914,7198.26,2908.16,7205,2907.1Z" transform="translate(-6923 -2498)"/><path class="cls-5" d="M6985.11,2805.06c-2.52,2.19-4.22,5-7.09,7.17s-7.71,7.84-6.7,10.71c2.57,7.26-.08,10.63-5.44,14.28-1.89,1.29-2.4,4.51-5.55,6.34a71.65,71.65,0,0,1,2.31-12c6.46-22.91,18.62-42.9,31.68-62.47,10.35-15.52,20-31.47,26.42-49.1a6.28,6.28,0,0,1,2.13-3.27c.77-.55,1.44-1.57,2.54-.77.82.59.51,1.5.32,2.29-1.94,7.9-2.72,16.08-5.72,23.73-7.82,20.05-20.08,38-27.9,58C6990.85,2803.25,6988.15,2804.36,6985.11,2805.06Z" transform="translate(-6923 -2498)"/><path class="cls-3" d="M7250.13,2723a2,2,0,0,0,2.14-.8c6.84-8.15,12.42-9.45,21.78-5.13-.91,27.77-9.53,51.81-33.12,68.61,3.62-7.07,4.31-14.89,5.94-22.42a11.07,11.07,0,0,1,3.87-6.61c9.35-8,9.7-16.72.66-25C7248.18,2728.7,7250.59,2725.84,7250.13,2723Z" transform="translate(-6923 -2498)"/><path class="cls-3" d="M6999,2850.13c-2.42-.22-2.45,1.85-3,3.26-7.36,18.78-7.63,37.39,1.33,55.78a16.85,16.85,0,0,1,.57,1.84,28.55,28.55,0,0,1-10.89-7c-3.08-4.8-6.83-9.16-9.37-14.32-5.29-10.74-6.25-22-4-33.64a16.17,16.17,0,0,1,2.65-6c2.64-2.33,5.17-3.24,9.16-3.58a22,22,0,0,1,11.22,1.81c.63.27,1.59-.26,2.4-.43A1.59,1.59,0,0,1,6999,2850.13Z" transform="translate(-6923 -2498)"/><path class="cls-11" d="M7129.13,2744c-4.56-11.19-6.35-23-8-34.87-.11-.8-.18-1.69.89-2,.69-1.52-.59-3.26.54-4.73,1.55-1.08,3.33-1.8,4.47-3.46.87-1.26,2.09-2,3.66-.94a3.34,3.34,0,0,1,.79,2.11c.16,7.48.34,14.91,5.07,21.36,3.87,5.29,8.58,8.77,15.44,8.61a3.44,3.44,0,0,1,3,1.13c-.43,2.37,1.67,2.8,2.92,4,9.32,9,21.32,10.29,33.3,11.7,1.8,2.32,5.45,4,2.83,7.89-6.34,2.79-13.07,2-19.57,1.5a145.25,145.25,0,0,1-23.56-4c-1.91-.46-4.17-.52-5.38-2.55s.62-3.2,1.74-4.6c2.81-3.55,2.11-5.92-2-7.54-6.09-2.38-10.4-.47-14.74,6.55A1.25,1.25,0,0,1,7129.13,2744Z" transform="translate(-6923 -2498)"/><path class="cls-3" d="M7011.16,2810.18c15.55-18.5,25.92-39.64,32-63,.71-2.73,1.29-5.49,1.93-8.23,8.48-3.11,11.39,3.19,14.51,8.79,1.19,2.15,1.8,4.6.35,7.13-12.15,21.18-27.45,39.63-47,54.44A9.36,9.36,0,0,1,7011.16,2810.18Z" transform="translate(-6923 -2498)"/><path class="cls-12" d="M7239,2659.2c3.62-.24,5.31,5.1,9.66,3.29.7-.29,1.12,1.78,1,3-.18,2.63-.4,5.27-.6,7.9-3.31,0-4.48-4.81-8.3-3.71a1.62,1.62,0,0,1-.9-.36q-8.07-9.9-20.17-5.82a95.58,95.58,0,0,1-13.3-2.07c-13.08-3.43-26.3-3.4-39.6-2a8.45,8.45,0,0,1-2.45.18c-14.93-1.59-24.92,6.36-33.37,17.28a16.25,16.25,0,0,0-6.59,8.87c-.49,1.45-.87,3.75-2.88,3.46s-.9-2.78-1.62-4.12c1-7.35,3-13.8,9.54-18.84,3.41-2.62,6.19-7,10.37-7.91,8-1.74,15-7.49,23.86-5.69,3.84.78,7.65-2.23,11.67-.07,1,.53,1.47-1.37,1.87-2.46,1.71-4.72,2-9.71,3-15.52,1.7,5.42,2.16,10.11,2.78,14.78.42,3.14,1.78,4.73,5,2.81,1.29-.77,2.33-2.07,3.3.38.31.77,1.58.68,2.25.23,5.75-3.81,11.76-2.27,17.79-1,1.76.37,2.31-1.09,2.68-2.33.6-2,1-4.06,1.61-6.9,1.95,2.64,1.41,5,1.41,7.09,0,4.06,1,6.79,5.86,5.49,1.9.15,3.73-.49,5.62-.47C7232.55,2655.05,7235.7,2657.34,7239,2659.2Z" transform="translate(-6923 -2498)"/><path class="cls-13" d="M7019.29,2557.22c-2.24,8.51-1.63,17.18-1.24,25.8.23,5.26,0,10.16-2.92,14.82-2.28,3.67-3.47,7.9-4.6,12.09-.27,1-.21,2.66-1.84,2.47-1-.13-1.29-1.39-1.56-2.36a174,174,0,0,1-6.61-38.74c-.27-6.12-.87-12.32,1.63-18.21.75-.64,1.68-1.68,2.55-1.05,3.27,2.37,6.77.07,10.09.74C7017.19,2553.34,7019.12,2554.39,7019.29,2557.22Z" transform="translate(-6923 -2498)"/><path class="cls-2" d="M6975.09,2821c2.13-1.12,5.51-1.39,2.79-5.31-1.1-1.58.41-2.31,2-2.27,1.32,0,2,1.87,3.51,1.42,1.14-1.19.21-2.55.38-3.79.23-1.77,2.15-4.14,2.5-3.72,3.76,4.45,7-4.83,10.51-.25,1.08,1.41,1.14,3,1.5,4.65,2.3-.08,3.61-3.69,6.22-1.87s.86,4.19.57,6.64c2.16-.47,4.49-1.37,5.76,1a5.4,5.4,0,0,1-.87,6.47c-.48,3.15.34,6.72-2.87,9a1,1,0,0,1-.7.15,6.12,6.12,0,0,0-4,2.45c-2.72,3.9-6.06,5.73-11.38,4.44-7.25-1.76-12.38-5.08-13.87-12.68C6976.65,2825.13,6974,2823.65,6975.09,2821Z" transform="translate(-6923 -2498)"/><path class="cls-14" d="M7241.88,2668.22c3.82-.28,6.31,1.34,7.26,5.13.33,14.26-1.33,28.42-2.34,42.61-.73,3.42-.43,6.9-.26,10.32.19,3.75-.92,5.34-4.92,5.39a9.07,9.07,0,0,0-9.27,7.64c-1.55,4.52-6,5.42-9.45,7.45-5.57,3.26-11.76,5-17.88,6.84-2.16.64-4.89,1.72-6.83-.91-.36-4.77,3.8-7.11,5.72-10.65,6.05-1.45,10.45-5.74,15.42-9.05,1.53-1-.69-2.89.78-4,.56-.29.94-.77,1.71-.83,9.1-.7,10.82-5.4,12.48-13.25,1.33-6.33,1.07-12.79,1.8-19.17.52-.88.93-1.86,2.06-2.16,2.59,0,2.11,2.32,2.82,3.77s.2,3.7,2.71,3.69c2.88-9.34-.14-18.12-2.2-27C7241,2672.1,7239.44,2670,7241.88,2668.22Z" transform="translate(-6923 -2498)"/><path class="cls-7" d="M7158,2906.08c1.57-2.8,3.1-2.54,5.61-.67,10.69,8,13.88,6.55,15.46-6.56.36-3.06.7-6.12,1.2-10.45a18.8,18.8,0,0,1,2.41,10.14c-.5,8.95-1.47,17.88-2.09,26.83-.21,3.13-1.71,4.51-4.59,5.45a36.1,36.1,0,0,1-23-.08c-2.17-2.43.2-4.69.32-7a57.34,57.34,0,0,1,1.49-12.32C7155.4,2909.37,7155.6,2907,7158,2906.08Z" transform="translate(-6923 -2498)"/><path class="cls-8" d="M7019.29,2557.22l-5.24-2.15c-8.66-2-9.92-3.14-10.07-9.11.33-.36.59-.95,1-1.06,14.78-4.09,29.58-8,45.13-7.26a10.5,10.5,0,0,1,1.94.46c4,4,1.69,8.11.15,12.19-1.31,2.86-3.38,3.36-6.46,2.93-7.81-1.11-15.49.69-23.16,1.91C7021.39,2555.31,7020.38,2556.5,7019.29,2557.22Z" transform="translate(-6923 -2498)"/><path class="cls-11" d="M7206.68,2525.22c-2.5-3.3-5-6.64-7.53-9.88a11.89,11.89,0,0,0-8.76-4.9c3.72-2.9,7-3.56,10.45-3,5.53.91,10.65,2.94,14.33,7.33,13.49,16.08,18.11,34,10.61,54.19-3.2,0-2.9-2.57-3.25-4.54-1.69-9.46-3.93-18.75-8.08-27.49A43.11,43.11,0,0,0,7206.68,2525.22Z" transform="translate(-6923 -2498)"/><path class="cls-5" d="M7278,2764c1.87-4.4,3.75-8.8,5.91-13.85,3.51,7.41,6.86,14.35,10.11,21.33,6.79,14.62,13.42,29.32,20.39,43.85,1.3,2.7.07,3.6-1.61,4.68-3.33,2.12-3.36-1.76-5-2.82-10.45-13.72-19.23-28.52-28-43.37C7278.06,2770.78,7276.68,2767.66,7278,2764Z" transform="translate(-6923 -2498)"/><path class="cls-2" d="M7309.8,2835.75c.39-1.23-.35-2.15-.74-3.23-1-2.81-2-5.91,3-5.4,2.7.27,2.43-1.52,2.39-3.23,0-1.34.9-3.66,1.32-3.27,4.49,4.17,6.68-6.91,11.07-1.54.31.39.78,1.14.95,1.09,5.69-2.1,6.39,4.18,9.83,5.91,3,1.52,3.58,4.18.94,6.88.74,4.49-.57,8.71-4.61,10.37-5.51,2.25-11.8,5.44-17.22,0C7314.39,2840.89,7310,2840.14,7309.8,2835.75Z" transform="translate(-6923 -2498)"/><path class="cls-11" d="M6999,2850.13l0-2.31c1.47-2.07,2.64-4.31,5.82-4.38a3.13,3.13,0,0,0,2.75-3.08c-.35-3.75,2.32-5.35,4.49-7.4.91-.26,1.36,0,1,1-.67,7.12-1.51,14.22-2,21.35-1,14.91,3.69,28.16,12,40.39,1.78,2.62,4.68,4.76,4.68,8.42-11.61-8-19.94-18.42-23.92-32.11C7001.78,2864.82,6999.8,2857.61,6999,2850.13Z" transform="translate(-6923 -2498)"/><path class="cls-3" d="M7202,2597a9.7,9.7,0,0,0-5.61-1.82c-25.48-1-50.62.88-74.29,11.19a98.42,98.42,0,0,0-34.05,24.69h-5.7c4.24-4.19,7.49-7.91,11.25-11,25.62-21.13,55.29-30.34,88.28-29.4,6.3.18,12.6.8,18.89,1.34,1.57.13,4-.62,4.47,1.13S7203.56,2596.12,7202,2597Z" transform="translate(-6923 -2498)"/><path class="cls-3" d="M7278,2764c3.83,10.18,10.52,18.76,15.81,28.13,3.59,6.35,7.6,12.46,11.41,18.68,1.21,2,2.45,4,2.62,6.38-13.1-12.71-24.53-27-37-40.23-7.84-8.32-5.18-16.72.15-25,4.3,1.2,2.71,5.29,3.91,8l-.87,10,.63.21Q7276.27,2767.1,7278,2764Z" transform="translate(-6923 -2498)"/><path class="cls-15" d="M7257.79,2628.09a87.6,87.6,0,0,1,12.27,37.66c-4.06-.28-5.2-3.5-7.1-5.81-1.41-.73-2.93-.38-4.4-.39-7.8-.07-10.35-2.1-11-9.82a11,11,0,0,0-2.44-6.71c-.73-2.65-1.46-5.29-2.18-7.94-1.1-2.52.46-3.14,2.35-2.77,3.54.68,6-.27,7.92-3.44A2.86,2.86,0,0,1,7257.79,2628.09Z" transform="translate(-6923 -2498)"/><path class="cls-16" d="M7136.88,2758.93l-2-3.65c.39-4.4,3.84-2.84,5.83-2.46,8.78,1.67,17.52,3.1,26.47,4,22.06,2.22,42.27-2.55,61.4-13.1a55.67,55.67,0,0,1,7.37-2.88c2.21.43,5,.14,5.53,3.13.47,2.81-2,4.09-3.93,5.2-17.4,9.83-35.58,16.2-56.11,15.55-11.78-.37-23.55-1.7-35.35-1.22C7142.86,2762.28,7138.15,2764.1,7136.88,2758.93Z" transform="translate(-6923 -2498)"/><path class="cls-17" d="M7136.88,2758.93c2.53,2.61,6.12,2,9.16,3,4.67-1.11,9.1.76,13.61,1.29,25.27,3,50.06,2.19,73.75-8.43a41.14,41.14,0,0,0,7.7-4.55c3.74-2.77,6.34-6.29,6.53-11.18.51-1.5,1.37-2.44,3.12-1.94,4.12,6.65,3.71,9.67-1.71,14.79a37.26,37.26,0,0,1-12.21,7.49c-37.25,14.8-74.38,13.67-111.47-.48-1.2-.46-2.6-.67-3.35-1.95.4-3,2.36-2.71,4.26-1.81,2.21,1,4.48,1.89,6.73,2.81C7134.31,2758.24,7135.41,2759.36,7136.88,2758.93Z" transform="translate(-6923 -2498)"/><path class="cls-3" d="M6985.11,2805.06c2.72-1.61,4-4.17,5.17-7,7.66-18.76,17.86-36.23,27.78-53.84A13.49,13.49,0,0,1,7020,2742c-2,11.18-6.77,21.5-10.42,32.17-2.91,8.48-5.85,17-9,25.36-.91,2.47-1.14,5.55-5.94,4C6992.23,2802.71,6988.58,2805.67,6985.11,2805.06Z" transform="translate(-6923 -2498)"/><path class="cls-9" d="M7014,2618.82a3.39,3.39,0,0,1,.13,1c-1.65,10.57,3.9,12.61,13.94,14.11,6.56,1,12.7-1.7,19-2.87a2.44,2.44,0,0,1,2.11,2.87c-.29,2.9.14,5.47,2.26,7.76a3.17,3.17,0,0,1-.15,4.53c-2.1,1.66-6,2.37-7.26,1.12-3.29-3.35-7.12-2.77-10.91-3.19-5.8-1.9-8-.18-8.42,6.72C7016,2648.53,7010.9,2632.63,7014,2618.82Z" transform="translate(-6923 -2498)"/><path class="cls-18" d="M7180.83,2941c-1.27-3.21-1.73-5.73,1.64-8.62,3.14-2.7.77-7.59,1.89-11.51,1.28,1.22,1.15,2.83,1.7,4.15,1.14,2.71-.1,7.07,4.15,7.66,4.89.67,10.34,1.57,14.07-2.76s7.63-7.44,13.56-8c2.78-.25,5.29-2.24,7-4.52,2.22-3,4-2.58,6.32-.21a42.43,42.43,0,0,0,4.35,3.34c1.09.87,3.11,1.14,2.69,3.1a4.69,4.69,0,0,1-3.39,3.37c-3.94,1.32-7.9,2.58-11.85,3.86-4-.36-7.28,1.89-10.72,3.31-8.44,3.51-17.37,5.13-26.12,7.49C7184.2,2942.21,7182.55,2941.55,7180.83,2941Z" transform="translate(-6923 -2498)"/><path class="cls-15" d="M7098.93,2652l1,.05c2.31,1.42.95,3.56,1.06,5.42a57.43,57.43,0,0,1-5.68,14.24c-1.37,2.43-2.54,5.61-6.35,5.35a22.69,22.69,0,0,0-8.95-12c-2.36-1.59-2.33-4.55-3.35-6.74s2.64-4.48,4.24-5.49c3.63-2.3,6-4.73,6.4-9.06.05-.62,1.09-1.15,1.68-1.72,2.69-.44,3.61,1.76,5,3.33C7095.74,2647.45,7096.34,2650.47,7098.93,2652Z" transform="translate(-6923 -2498)"/><path class="cls-18" d="M7130.05,2943.75c-8.75,1.31-14.81-4.93-21.93-8.05-2.76-1.21-.19-3.15,1.17-3.16,9.3,0,18.11-5.53,27.38-3.28,7.18,1.74,14,5,21.4,6.17a37.85,37.85,0,0,0,14.31-.13c1.22-.28,2.68-1.48,3.68-.2.87,1.12-.19,2.52-.57,3.76s-.83,2.15-1.25,3.23a61.27,61.27,0,0,1-22.79-2.26c-4.79-1.32-9.88-1.52-14.83-2.28C7131.93,2936.82,7130.78,2940.13,7130.05,2943.75Z" transform="translate(-6923 -2498)"/><path class="cls-19" d="M7129.1,2675.2c4.32-5.67,9.2-10.68,15.49-14.28,6.79-3.89,13.81-5.13,21.36-2.77,3.06.33,4,2.67,4.16,5.11.23,3.45-2.5,4.55-5.22,5.42a8.21,8.21,0,0,1-3.94.19c-15.81-1.56-28.2,7.15-32.23,22.66-1.81,1.79-2.34,4.14-2.87,6.5a8.78,8.78,0,0,1-2.67,5c-.17,1.45-.27,2.91-.55,4.34-.12.62-.76.61-.33.1,0,0-.2-.24-.3-.37a15.7,15.7,0,0,1-1-6.25C7120.29,2691.23,7123.73,2682.91,7129.1,2675.2Z" transform="translate(-6923 -2498)"/><path class="cls-20" d="M7177,2891.94a50.6,50.6,0,0,1-.76,10.7c-.67,4.07-2.22,5.17-5.66,2.52-.9-.7-1.78-1.42-2.66-2.13-6.2-8-5.58-17.31-5-26.48a40.11,40.11,0,0,1,1.61-8.58c1.12-3.93,3.44-5.48,7.51-5-.42,3.16-.85,6.31-1.39,10.34,2.09-2.17,2-4.3,2.58-6.14,4,0,3.73,3.23,3.58,5.52C7176.38,2879.1,7177.21,2885.51,7177,2891.94Z" transform="translate(-6923 -2498)"/><path class="cls-18" d="M7154,2850.76c-.3-6.52,1.71-12.63,3-18.88,3.09,8.91-.08,53.63-4.71,61-1.67-17.3-7.78-32.55-8.24-48.88,2.2-1.07,2.81.38,3.41,2.06.47,1.31.19,3,1.81,3.77,2.14,7.92,1.65,16.3,4.32,24.14.85-7.11-1.6-14-1.52-21C7152.16,2851.78,7153.35,2851.53,7154,2850.76Z" transform="translate(-6923 -2498)"/><path class="cls-11" d="M7299.18,2843.1c-1.89.32-2.67-.94-3.32-2.36q-6.46-14.26-12.9-28.55a4.2,4.2,0,0,1,0-1.69,1.29,1.29,0,0,1,2,.5c12.2,17.89,23.42,36.32,32.31,56.11,3.9,8.71,5.67,17.67,3.9,27.17-1.31.86-1.34-.28-1.39-1a78,78,0,0,0-15.65-42.41C7302.24,2848.44,7302.44,2844.68,7299.18,2843.1Z" transform="translate(-6923 -2498)"/><path class="cls-15" d="M7020.88,2573a73.16,73.16,0,0,1,1.18-12.35c.2-1.32.15-3.16,1.74-3.15,5.93,0,11.83-1.79,17.76-.22,3.12.82,4.39,2.53,1.86,5.22-3.94,4.21-8.13,8.18-12.08,12.38-1.8,1.91-3.26,4.14-4.92,6.21-.8,1-1.53,2.5-3.13,1.66-1.22-.65-2.67-1.28-2.46-3.3A63,63,0,0,0,7020.88,2573Z" transform="translate(-6923 -2498)"/><path class="cls-3" d="M7206.68,2525.22c7.27,4.41,10.66,11.61,13.49,19.1,3,7.94,4.18,16.33,5.61,24.65a84.69,84.69,0,0,1-13,17.84c1.16-8.48,2.48-15.91,3.12-23.4a56.49,56.49,0,0,0-6.57-32.31C7208.35,2529.2,7207.57,2527.18,7206.68,2525.22Z" transform="translate(-6923 -2498)"/><path class="cls-21" d="M7161.89,2827.81c1.95-5.3,5.53-5.84,10.15-3.5,2.64,1.34,5.36,2.53,8,3.88a3,3,0,0,1,1.85,3.62,3.18,3.18,0,0,1-3.37,2.36c-2.47.06-4.94-.09-7.41-.16-.14,3.71,2.85,2.56,4.78,3.11,2.65.74,6.5,0,6,4.75-3.76,3.57-7.63,7-12.91,8.06-3.29-1.27-4.18-4.47-5.24-7.2C7161.92,2838,7160.47,2833,7161.89,2827.81Z" transform="translate(-6923 -2498)"/><path class="cls-22" d="M7236,2742c-21,13.76-44,18.54-68.87,16.47a241.68,241.68,0,0,1-27-4.17,6.05,6.05,0,0,0-5.21,1,2.52,2.52,0,0,1-1.79-2.3c.17-3.87,2.69-4,5.61-3.57,8,1.28,15.73,4,23.83,5,9.7,1.26,19.33,2.42,29.07.61,1.46-.28,3-.07,3.75-1.79a2.84,2.84,0,0,1,3.54-1.52c3.79,1.17,7.13-.64,10.53-1.73a75.69,75.69,0,0,0,21.55-10.9c2.32-1.51,3.74.1,5.23,1.5A1.26,1.26,0,0,1,7236,2742Z" transform="translate(-6923 -2498)"/><path class="cls-23" d="M7130.05,2943.75c-.91-1.32-4.74.08-3.44-2.76s3.25-6.71,7.52-6.19c6.25.76,12.44,2,18.65,3.1,5.72,1,11.38,2.41,17.26,2.1a4.05,4.05,0,0,1,4.2,2.09c-.63,3.86-3.06,5.22-6.73,4.8-5.69-.65-12.09,1.13-16.21-4.92-.87-1.26-2.45-.76-3.68-.19C7142,2944.39,7136,2944,7130.05,2943.75Z" transform="translate(-6923 -2498)"/><path class="cls-10" d="M7241,2638.92a63.15,63.15,0,0,1,3.71,19.3,4,4,0,0,1-4-1.9c-3.8-5.8-9.39-5.65-15-4.3-3.44.82-4.27-.1-4.64-3.29-.46-3.92-1.49-7.77-2.28-11.65,1-2.48,3.19-2,5.08-2C7229.87,2635.23,7235.47,2637,7241,2638.92Z" transform="translate(-6923 -2498)"/><path class="cls-11" d="M6976.22,2850c-.38,4.11-.79,8.22-1.13,12.33-1.05,12.88,2.65,24.52,9.16,35.46,1.14,1.92,3,3.59,2.73,6.18-12.28-10.8-18.3-24.92-21.62-40.5-.4-1.88.5-3.18,1.63-4.45A67.83,67.83,0,0,1,6976.22,2850Z" transform="translate(-6923 -2498)"/><path class="cls-9" d="M7091.05,2586.92c5.63-9.91,11.86-19.38,20.53-27.24-.9,1.88-1.78,3.76-2.7,5.62-4.59,9.23-9.57,18.28-12.52,28.23-.55,1.87-1.63,3.76-.11,5.68-4.69,4.78-9.4,9.54-16.18,14,1.37-3.84,2.27-6.34,3.16-8.84C7084.3,2597.83,7088.17,2592.6,7091.05,2586.92Z" transform="translate(-6923 -2498)"/><path class="cls-13" d="M7009.06,2675c3.34,2.15,3,7.1,6.29,9,5.44,3.12,2.37,5-.44,7.4-7.69,6.53-15.13,13.37-23.77,18.68-3.45-1.22-1.12-3.35-.31-4.45,5.26-7.16,9.33-15,13.5-22.78C7005.77,2680.15,7006.8,2677.21,7009.06,2675Z" transform="translate(-6923 -2498)"/><path class="cls-11" d="M7030.88,2717.1c-5.09-4-6-8.37-2.89-13.64.83-1.42,1.46-2.94,2.18-4.42,2.35-2.64,4.76-4.82,8-1.07,2.08.85,4.36,1.37,5.86,3.26,4.5,7.25,3.29,13.26-3.16,16.67C7037.25,2719.79,7034.11,2718.49,7030.88,2717.1Z" transform="translate(-6923 -2498)"/><path class="cls-23" d="M7180.83,2941c3-1.94,6.56-2.11,9.89-3,9-2.26,17.85-4.68,26.32-8.51,2.09-1,4.76-2.65,5.91,1.35-1.73,9.45-8.64,10.22-16.36,9.91-4.41-.18-8.7-.32-12.53,3.15-2.38,2.15-6.19,2.09-9.5,2.31C7180.61,2946.53,7181.71,2943,7180.83,2941Z" transform="translate(-6923 -2498)"/><path class="cls-13" d="M6953.16,2701.16c5,1.18,9.57-2,14.89-1.48-2.49,5-6.25,8.36-10.26,11.54-3.09,2.45-6.49,4.64-7.61,8.8.65-3.24-1.28-4.92-3.82-6.14-4.11-2-8.26-3.87-13.14-6.15Z" transform="translate(-6923 -2498)"/><path class="cls-11" d="M7141.94,2643.05c1.22,6.74.47,12.4-7.13,15.13-4.33,1.56-5.57,7.47-10.7,8.17-3.36-2.21-2.21-5.87-2.44-8.83-.72-9,.13-10.3,8.55-13.4C7133.92,2642.75,7137.74,2640,7141.94,2643.05Z" transform="translate(-6923 -2498)"/><path class="cls-24" d="M7220.09,2848.93a147.11,147.11,0,0,0,29.53,23.47A46,46,0,0,0,7259,2877c.7.84,2.43,1.32,1.95,2.56-.59,1.51-2,.42-3,.13-9.58-2.89-18.37-7.52-27-12.52-9.51-5.54-9.45-5.64-10.09,5.1A125.16,125.16,0,0,1,7220.09,2848.93Z" transform="translate(-6923 -2498)"/><path class="cls-10" d="M7157,2789c2.35,4.56,4.55,9.21,7.13,13.63,1.16,2,0,3.07-.72,4.47-1.11,2.3-2.12.29-3.07-.14-4.13-1.83-8.68-1.16-13-2.16-2.21-.52-5.2-.15-5.54-2.44s0-5.36,3.09-6.74a12.24,12.24,0,0,0,6.08-5.65C7152.7,2788.1,7154.53,2786.69,7157,2789Z" transform="translate(-6923 -2498)"/><path class="cls-25" d="M7172,2862.93c-6.18,2.27-7.19,6.93-7.15,13a142,142,0,0,0,3.07,27.08c-8.64-4.66-11.51-10.27-9.15-19.38a173.36,173.36,0,0,1,9.11-26.83,7.79,7.79,0,0,1,6.15-5A37.45,37.45,0,0,1,7172,2862.93Z" transform="translate(-6923 -2498)"/><path class="cls-26" d="M7044.15,2667.21c-6.37,1.11-9.54,6.24-13.48,10.52-5.11,5.55-9.36,6.37-13.57,3.24.91-1.9,1.73-3.86,3.47-5.22,4.35-.76,8.46-1.83,10.4-6.53,1.14-2.76.7-4.55-2.1-6.13-4.83-2.74-10.39-1.85-15.39-3.59-3.75-1.12-2.61-5.14-4.39-7.42,1.78-1.5,3.71-.83,5.63-.39a57.8,57.8,0,0,1,20.17,8.87c.62.42,1.62,1.75,2.21,0,.13-.38-.63-1.07-1-1.62a2.68,2.68,0,0,1,2.89-1l1.11,1.13C7040.08,2662.49,7042.67,2664.58,7044.15,2667.21Z" transform="translate(-6923 -2498)"/><path class="cls-27" d="M7216.91,2838.94c-.17,15.24.9,30.44,2,46.1-6.62-4.16-13.33-40.71-9.65-51.53,2.52,12.62,2,24.88,4.53,36.74,1-8.87-.89-17.63-.62-26.44C7214.68,2842.41,7213.06,2838.55,7216.91,2838.94Z" transform="translate(-6923 -2498)"/><path class="cls-28" d="M7058.27,2691.22c7.21,0,7.34,0,6.61,6a77.57,77.57,0,0,0,.57,19.38c.21,1.64.9,3.39-1.25,4.26s-2.43-1.07-3.29-2.16c-2.06-2.61-4-5.44-7.39-6.42-1.62-.46-2-1.19-1.74-2.85.68-3.81-1.1-6.73-3.74-9.29-.77-.75-2.38-1.23-1.76-2.61a3.78,3.78,0,0,1,2.47-1.42c1.88-.38,2,1.27,2.44,2.48q1,2.82,1.93,5.66c1.28,3.88,3,3.09,5.17.63C7062.17,2700.52,7061.29,2696.11,7058.27,2691.22Z" transform="translate(-6923 -2498)"/><path class="cls-11" d="M7176.11,2643.26c-.31,6.9-6,6.31-9.88,5.83-4.63-.59-8.84.36-13.23.89-3.9-1.19-4.61-4.54-4.32-7.72.26-2.85,3.19-3.35,5.7-3.81,5.19-1,10.47-1.24,15.7-1.79C7176.13,2636,7176.86,2637.1,7176.11,2643.26Z" transform="translate(-6923 -2498)"/><path class="cls-11" d="M7046.12,2716.79a.45.45,0,0,1,.53,0c6.08-.56,9.18.93,10.73,5.11a10,10,0,0,1-3.45,11.3c-4.28,3.15-7.71,3-12.33-.45-.67-.5-1.22-1.13-1.9-1.6l-.75-2a15.09,15.09,0,0,1,.36-8.57C7040.49,2717.26,7042.49,2715.64,7046.12,2716.79Z" transform="translate(-6923 -2498)"/><path class="cls-29" d="M7168.76,2784.09c2.65,3.18,5.36,6.32,7.95,9.55,1.39,1.74-1,10.21-3.53,11.22-2.7,1.07-5.12-.51-6.74-2.78a52.76,52.76,0,0,1-6.67-12.73C7159.85,2784.36,7162.73,2782.67,7168.76,2784.09Z" transform="translate(-6923 -2498)"/><path class="cls-4" d="M6977.61,2845.5c-7.32,6-14.41,12-19.16,20.33.37-11.2,3.4-21.3,11.56-29.4,1.33-1.32,2.43-1.7,3.05.75A18.94,18.94,0,0,0,6977.61,2845.5Z" transform="translate(-6923 -2498)"/><path class="cls-30" d="M6975.09,2821a46.56,46.56,0,0,1,2.48,4.81c2.51,6.65,8,10,14,12.61,2.61,1.14,4.73-.67,6.78-2.06,2.43-1.66,4.66-3.8,8-3.23-.63.5-1.85,1.39-1.82,1.44,4.66,6.84-4.24,5.89-5.6,9.43-1,2.48-3.79.75-5.35-.82s-2.91-2.79-4.68-.36a1.09,1.09,0,0,1-.4.29c-4.36,2.21-3.81-3.87-6-3.78-2.76.12-5.92,2.56-4.81-2.94.24-1.18.15-1.95-.81-2.51-2.37-1.4-3.31-2.88-1.27-5.49,1.23-1.58-.66-2.6-1.64-3.64C6972.3,2822.91,6972.34,2821.57,6975.09,2821Z" transform="translate(-6923 -2498)"/><path class="cls-31" d="M7263.88,2624.08A154.51,154.51,0,0,1,7279,2664.9c.91,2.93,0,5.13-3.11,5.41s-3.93-1.78-3.13-4.57c-.61-14.42-6.06-27.27-12.84-39.69C7260.1,2623.08,7262,2623.53,7263.88,2624.08Z" transform="translate(-6923 -2498)"/><path class="cls-3" d="M7263.88,2624.08l-3.93,2c-2.81-2.11-3.09-7.14-7.95-6.92-7-6.93-13.79-14-23.43-17.43-7-2.5-14.32-3.89-21.54-5.61,1.18-2.14,3-2.33,5.12-1.73a181.14,181.14,0,0,1,43.91,19.26C7260.1,2616.06,7262.41,2619.74,7263.88,2624.08Z" transform="translate(-6923 -2498)"/><path class="cls-7" d="M7196,2803c.27,3.38-1.92,5.89-3.18,8.7a89.9,89.9,0,0,0-4.07,11.94c-2.48-5.67-6.45-10.07-10.59-14.34.68-4.1,1.73-8,6.15-9.71C7188.53,2799.66,7193.07,2798.61,7196,2803Z" transform="translate(-6923 -2498)"/><path class="cls-24" d="M7147,2909.9c-6.06.53-12.12,1-18.17,1.6-2.65.27-5.27.88-7.77-.55,8.57-3.51,16.47-8.29,24.56-12.73,2.3-1.27,3.46-2.88,3.5-5.42C7150.81,2898.8,7150.56,2904.56,7147,2909.9Z" transform="translate(-6923 -2498)"/><path class="cls-3" d="M7308,2711c-2,4.54-6.2,4.37-10.11,4.92-2.36,0-5.07,2.72-6.94-.92a2.07,2.07,0,0,0,.21-2.64c-2.31-4.87-1.42-9.36,2.14-13.33.85-1,2.48-2,.58-3.06-6.23-3.59-5.27-10.06-6.79-15.83,3,0,3.49,2.29,4.6,4,2.6,5.41,4.28,6.39,9.78,5.57,2.07-.31,4.26-1.39,5.54,1.37-.43,2.63-2.65,3.64-4.6,4.73-1.37.76-1.12,1.28-.25,2.09-.22,1.6-1.52,1.93-2.75,2.42-2.63,1-3.91,3-3.33,5.81.64,3,2.88,4.19,5.81,4.23C7304,2710.37,7306.15,2709.27,7308,2711Z" transform="translate(-6923 -2498)"/><path class="cls-32" d="M7196.78,2753.91c.05,2.41-1.86,1.85-3.2,2-17.7,2.59-35-.17-52.16-4.11-3-.68-5.87-1.55-8.34,1.14a23.79,23.79,0,0,1-3.95-9l1.17,0c5.25,1.33,10.81,1.48,15.71,4.11,6.73,4.65,14.76,4.41,22.32,5.87,8.56,1.66,17.17,1.29,25.76,0A1.74,1.74,0,0,1,7196.78,2753.91Z" transform="translate(-6923 -2498)"/><path class="cls-5" d="M7308,2711a17.19,17.19,0,0,1-5.58,2c-3.37.31-6.25-.41-8.11-3.53a8,8,0,0,1-.22-8.49c1.8-3.26,4.69-3.87,8.07-3.08C7307.48,2700.74,7309.41,2705.09,7308,2711Z" transform="translate(-6923 -2498)"/><path class="cls-33" d="M7108.1,2818.14c-1.73,1.25-3.47,2.5-6.05,2.67.49-7.24,3.71-13.41,6.58-19.67.71-1.56,2.2-1.24,3.48-1.15a25.17,25.17,0,0,1,9.85,3.2c1.81,2.23.14,3.57-1.27,5C7116.88,2812,7111.85,2814.25,7108.1,2818.14Z" transform="translate(-6923 -2498)"/><path class="cls-23" d="M7149.2,2849.8c-2.06,1.75-1.85-.69-2.39-1.4-1.06-1.39-1.9-3-2.83-4.43-1.95-11.07-1-22.09.62-33.09.2-1.29.73-2.86,2.44-2.56s1.28,2,1.22,3.27C7147.59,2824.35,7148.3,2837.08,7149.2,2849.8Z" transform="translate(-6923 -2498)"/><path class="cls-11" d="M7059.3,2741.94c-2.44-2-2.31-5.06-3.41-7.61-.68-4.47.36-5.66,5-5.73,4.68-4.5,5.76-4.3,7.68,1.52.87,2.61,1.65,5.25,2.47,7.88C7070,2745.33,7066.13,2746.62,7059.3,2741.94Z" transform="translate(-6923 -2498)"/><path class="cls-34" d="M7203.14,2864.84c1.64-1.38.62-3.12.63-4.72,0-1.81.92-1.84,2.22-1.17.37,3.28.73,6.56,1.1,9.84.51,8.2,2.93,16.29,1.23,24.6-.43,2.07-.27,4.53-3.39,4.6a74.3,74.3,0,0,1-4.1-14.92c-.9-6-2.11-12.06.6-18A1.43,1.43,0,0,1,7203.14,2864.84Z" transform="translate(-6923 -2498)"/><path class="cls-28" d="M7038.14,2698a24.4,24.4,0,0,0-8,1.07,97.85,97.85,0,0,1,5-17.27c1.78,2.31,2.21,5.1,4.73,5.94,3,1,4.37-1.57,6.16-3.17,3.41,6.75,1.88,10.23-5.09,11.83C7039.89,2696.63,7038.59,2696.57,7038.14,2698Z" transform="translate(-6923 -2498)"/><path class="cls-35" d="M7177,2891.94c-1.65-5.27-1.75-10.74-2-16.17-.16-3-.06-6-1.79-8.64,1.12-5.37,2.2-10.75,3.4-16.11.34-1.5,1.28-3.12,2.9-3,1.85.11,1.38,2.08,1.28,3.23C7179.59,2864.8,7178.29,2878.37,7177,2891.94Z" transform="translate(-6923 -2498)"/><path class="cls-24" d="M7158,2906.08a94.39,94.39,0,0,1-5,24.66l-2.27-.63c-1.71-5.3-3.45-10.59-1.91-16.27a52.48,52.48,0,0,0,3.67-12.32c.33-1.68.4-4,3.13-3.45,2.29.47,2.33,2.35,2.33,4.29C7158,2903.6,7156.8,2904.87,7158,2906.08Z" transform="translate(-6923 -2498)"/><path class="cls-25" d="M7204.93,2898c1.79-7.64,2.06-15.41,2-23.22,0-2,.08-4,.12-6,1.8,6.86,2.73,13.9,7.3,19.9,2.74,3.59-2.4,13.33-6.81,13.62C7204.6,2902.52,7205.45,2899.67,7204.93,2898Z" transform="translate(-6923 -2498)"/><path class="cls-24" d="M7085.05,2860c-1.49-3.63-1.1-7.33-.52-11.07.51-3.37,1.2-6.77-.57-10a41.46,41.46,0,0,1,14.14-11.77,18.8,18.8,0,0,1-3.15,7.94,104.83,104.83,0,0,0-4.17,10.48c-.87,3.05-2.11,6-2.82,9.09C7086.49,2856.16,7088.28,2859.44,7085.05,2860Z" transform="translate(-6923 -2498)"/><path class="cls-33" d="M7307,2691.06c-2.69-.15-5,2.2-7.72,1.41-4.14-1.22-7.7-3.17-7.6-8.35,1.84,1.38,2.53,4.75,5.83,3.62,2.23-.77,4.56-2,5.34-4.18s-1.52-3.4-2.93-4.65c-1.6-1.44-3.43-2.61-5.88-4.42,4.52-2.2,7.19-1.78,9.38.67C7307.58,2679.75,7309.73,2684.88,7307,2691.06Z" transform="translate(-6923 -2498)"/><path class="cls-36" d="M7235.7,2598.25l-22.14-7.68c3.73-7.48,6.54-9.08,11.42-6.52a49.18,49.18,0,0,1,12.3,11.82C7237.49,2597.15,7237.93,2598.59,7235.7,2598.25Z" transform="translate(-6923 -2498)"/><path class="cls-33" d="M7196,2803l-12.25-2c-.79-4.79,3-13.32,6.82-15.46,5.24-.6,6.78.59,6.88,5.45a12.1,12.1,0,0,1-.29,4.4C7197,2797.92,7197.14,2800.54,7196,2803Z" transform="translate(-6923 -2498)"/><path class="cls-30" d="M7309.8,2835.75c6.3,6.11,13.27,9.94,22.4,6.8a6.59,6.59,0,0,0,4.82-5.08c.34-1.54,0-3.39,1.58-4.51,2.63,5-1.21,9.5-5.23,12.84-3.74,3.1-7.36,1.72-10.71,3.2a3.18,3.18,0,0,1-3.63-.29c-3.56-2.6-6.15-6.1-9-9.35A2.59,2.59,0,0,1,7309.8,2835.75Z" transform="translate(-6923 -2498)"/><path class="cls-10" d="M7193.14,2865.76c-3.41-1.69-6.12-4.84-10.32-4.85l1.35-11.81c.17-1.45.05-3,2.15-3.32a3.63,3.63,0,0,1,3.84,1.61,9.4,9.4,0,0,1,1.7,5.05C7192.15,2856.89,7192.7,2861.32,7193.14,2865.76Z" transform="translate(-6923 -2498)"/><path class="cls-37" d="M7057.36,2625.94c7.1-2.46,12.31-7.54,17.48-12.66,1.4-1.39,2.76-2.83,4.14-4.24l-5.82,16.23c-1.37.24-1.79,1.46-2.5,2.4-2.48,3.26-5.68,4.61-9.74,3.58C7056.77,2631.47,7058.62,2627.66,7057.36,2625.94Z" transform="translate(-6923 -2498)"/><path class="cls-20" d="M7165.86,2809.79c.64-3.24,2.7-1.68,4.15-1a31.65,31.65,0,0,1,14.18,12.66c.75,1.22,2.53,2.67.55,4.28-1.62,1.32-2.7-.25-3.88-1-.69-.44-1.32-1-2-1.49a29.7,29.7,0,0,0-8.09-4.44C7166.69,2817.08,7164.65,2814.36,7165.86,2809.79Z" transform="translate(-6923 -2498)"/><path class="cls-37" d="M7287.05,2565c-5.41,5-11.05,9.54-19.2,8-1.27-.24-2.52-.62-3.78-.93,9.21-2.47,15.25-8.45,18.9-17.08A32.42,32.42,0,0,1,7287.05,2565Z" transform="translate(-6923 -2498)"/><path class="cls-38" d="M7235.7,2598.25c.09-.72.17-1.44.25-2.16-1.65-4.94-1.65-4.94,1.23-6.19,8,4.14,16.74,12.69,18.6,19.29C7248.88,2604.42,7242.23,2601.48,7235.7,2598.25Z" transform="translate(-6923 -2498)"/><path class="cls-39" d="M7033.07,2644.13c4.06-1,7.86-2,11.18,2.21,1.32,1.67,4.28.16,5.82-.83s.37-2.92-.79-4.24a6.88,6.88,0,0,1-1.37-5.62c.17-1.65.59-3.3-.89-4.61.13-3.25-1.18-7,3.06-8.81.66.6,1.31,1.21,2,1.82-2-.32-2.88.78-2.71,2.55.36,3.68-.06,8.47,1.41,10.8,2.85,4.54,1.29,11.36,7.72,13.75-2.61,2.44-4.27,1.2-5.92-.44-2.15-2.14-4.35-3.66-7.35-1.22-1.95,1.58-2.44-.5-3.3-1.58-1.81-2.28-3.82-3.84-6.75-1.69Z" transform="translate(-6923 -2498)"/><path class="cls-40" d="M7009.06,2675c-2.09,7.06-6.88,12.74-9.89,19.33-2.44,5.36-6.54,9.88-8,15.73a45.43,45.43,0,0,1-11,7c2.53-5.75,7.28-9.84,11.12-14.59,5.18-6.42,8.95-13.59,12.55-20.91.61-1.24,1.08-2.47.09-3.74A12.17,12.17,0,0,1,7009.06,2675Z" transform="translate(-6923 -2498)"/><path class="cls-41" d="M7148.85,2913.84c2,5.26,4.09,10.51,1.91,16.27-3.79-.91-7.48-1.72-10.7-4.4-2.27-1.89-1.48-2.49.15-3.89C7143.18,2919.27,7146,2916.51,7148.85,2913.84Z" transform="translate(-6923 -2498)"/><path class="cls-26" d="M7139,2788a64.37,64.37,0,0,1-7.64-11c-1.14-2-1.5-3.84.76-5.13,2.63-1.51,5.47-2.62,8.49-1.23,1.06.5.73,1.78.39,2.71a57.65,57.65,0,0,1-2.32,5.5c-1.45,2.87-1,4.59,2.07,6.33,2.39,1.34,7.14,1.77,5.21,6.76C7142.92,2791.82,7141.54,2788.84,7139,2788Z" transform="translate(-6923 -2498)"/><path class="cls-42" d="M7291,2715c2.33.15,4.77-.46,6.94.92-1.27,2.1.29,4.14.15,6.24-.19,2.71-.54,5.24-3.16,6.79-1.79,1.06-3.88,1.75-5.49.41a3.85,3.85,0,0,1-1-4.9C7290,2721.54,7287.33,2717.44,7291,2715Z" transform="translate(-6923 -2498)"/><path class="cls-33" d="M7151,2810.24c7.07-2.14,10.62.51,10,7.66-.15,1.82,2.32,3.08.83,5-2.43.54-4.82,1.27-7.25,1.74s-4.07-.58-4-3.09C7150.61,2817.79,7149.91,2814,7151,2810.24Z" transform="translate(-6923 -2498)"/><path class="cls-43" d="M7245.15,2590.17a216.81,216.81,0,0,0-19.95-10.08c-2.64-1.15-1.68-2.49-.46-3.62,1.39-1.28,1.41-5.64,4.61-3.21A70.11,70.11,0,0,1,7245.15,2590.17Z" transform="translate(-6923 -2498)"/><path class="cls-44" d="M7021.07,2677a5,5,0,0,1-4,4c-5.21-8.92-8.45-18.4-8-28.89l5,6c.66.72,1.78,1.34,1.82,2.27C7016.15,2666.35,7019.49,2671.4,7021.07,2677Z" transform="translate(-6923 -2498)"/><path class="cls-45" d="M7193.17,2635l.8.06c4.55,0,9.1,0,13.65,0,1.57,0,3.39.38,4-1.84a1.11,1.11,0,0,1,.58-.21c1.09,3.89.19,7.81.28,11.72.07,3.55-1.64,4-4.46,3.23a5.27,5.27,0,0,1-1.14-3.23c0-2.12-.28-4.25-2.82-4.58-3-.37-3.35,2.09-3.88,4.22-.24,1-.9,1.78-1,2.81a27.45,27.45,0,0,1-2.75,2.07c-2.66,1.57-3.45.63-3.3-2.28C7193.31,2643,7193.16,2639,7193.17,2635Z" transform="translate(-6923 -2498)"/><path class="cls-4" d="M7200.1,2820c-1.15-5.56.27-8.78,4.66-10.4,3.38-1.25,5.53.07,6,3.53a66.85,66.85,0,0,1,.19,7.89c-1.75,3.56-4.35,3.69-7.33,1.71A21.9,21.9,0,0,1,7200.1,2820Z" transform="translate(-6923 -2498)"/><path class="cls-11" d="M7199.15,2647.15c-.35-.92-1-1.86-1-2.74.18-2.32-1.93-5.39.75-6.82s5.81-.76,8.67.27c2.39.87,2.54,2.89,2.09,4.93a50.67,50.67,0,0,1-1.7,5.14C7204.88,2649.41,7202.21,2646.13,7199.15,2647.15Z" transform="translate(-6923 -2498)"/><path class="cls-10" d="M7337,2854.91c-.68-1.23-4.2-1.7-1.51-3.75,1.47-1.13,3.3-4.27,6-.91,5.8,7.24,10.77,14.67,8.32,24.65-2.92-.22-2.22-2.89-2.79-4.47C7344.9,2864.44,7342.22,2858.89,7337,2854.91Z" transform="translate(-6923 -2498)"/><path class="cls-17" d="M7241,2638.92c-1.38,2.55-3.45,1.17-5.22.79-5.6-1.23-11.1-3-16.95-2.63-.91-.75-.91-1.82-1-2.85.06-1.61.9-2.3,2.49-2.38,6-.28,11.93-.68,17.76,1.13Z" transform="translate(-6923 -2498)"/><path class="cls-46" d="M7060.92,2631.25c3.28-2.18,7.25-3.27,9.94-6.4.81-1,1.74-.87,2.3.42-.89,5.91-3.63,11.26-5.12,17-.21.8-.78,2.07-1.39,1.55-1.5-1.27-3.7-2.43-3.11-5C7064.26,2635.68,7062.94,2633.36,7060.92,2631.25Z" transform="translate(-6923 -2498)"/><path class="cls-3" d="M7141.94,2643.05c-5.57.23-10.57,2.47-15.64,4.47-2.55,1-3.43,3-3.25,5.51.31,4.45.7,8.88,1.06,13.32-.75,2.06-2.06,3.66-4.56,5.51.23-10.12.44-19.56,2.41-28.89,4.74,1.55,8.88-1.2,13.29-1.91,2.27-.37,4.44-1,6.67,0C7141.93,2641.7,7141.93,2642.38,7141.94,2643.05Z" transform="translate(-6923 -2498)"/><path class="cls-47" d="M7235.94,2741.16l-5-2.07c-1.53-5.22.9-8.47,6.87-9.19,7.69-.93,7.69-.93,8.05-8.59.09-1.82.05-3.66.92-5.35,0,2,0,4,0,6-.11,4.27-.81,8.64,3.18,11.91.7.57.54,2.17.78,3.3l-1.81,1.81c-1.3,3.51-3.57,4.95-7.27,3.49C7239.83,2741.73,7237.71,2742.2,7235.94,2741.16Z" transform="translate(-6923 -2498)"/><path class="cls-22" d="M7202.24,2789.81c5.61,2.37,5.31,8.33,7.65,12.68.46.86-.37,1.65-1,2.05-3.58,2.19-5.79-2.2-9.16-2-1.87.1-.74-2.08-.67-3.17.2-3.13.63-6.25,1-9.38A1.78,1.78,0,0,1,7202.24,2789.81Z" transform="translate(-6923 -2498)"/><path class="cls-48" d="M7060.88,2728.6c-2.52,1.17-4.73,2.6-5,5.73-8.23,4.36-12.28,3.57-16.19-3.17a18.85,18.85,0,0,1,2.76,1.09c3.89,2.27,7.63,2.07,11.06-.8,2.93-2.44,3.12-5.88,2.13-9.13-1.29-4.27-4.86-5.54-9-5.52,6.34-2.23,10.54-.38,12.65,5.71C7060,2724.49,7060.36,2726.57,7060.88,2728.6Z" transform="translate(-6923 -2498)"/><path class="cls-49" d="M7203.14,2864.84l-1.2.08c-2,1.22.23,5.76-4.08,5.13a132.13,132.13,0,0,1-3.73-21.44c-.09-1-.46-2.63,1.06-2.9s1.85,1.2,2.22,2.26C7199.35,2853.58,7201.23,2859.22,7203.14,2864.84Z" transform="translate(-6923 -2498)"/><path class="cls-26" d="M7209,2790c-3.49-1.54-4.87-3.12-.39-5.35,3.29-1.64,2.13-4.39,1.39-7-.36-1.24-1.19-2.6-.07-3.76,1.24-1.31,2.85-.81,4.18-.17a40.81,40.81,0,0,1,6.5,3.63c2.47,1.8,2.21,3.53-.79,4.59-3.57-.83-5.91.62-6.49,4.12C7212.9,2788.73,7210.63,2788.85,7209,2790Z" transform="translate(-6923 -2498)"/><path class="cls-45" d="M7278.1,2719c2.47.66,4.15,2.48,5.95,4.1a72.61,72.61,0,0,1-3,21.18c-.66-.28-1.42.25-2.05-.26Z" transform="translate(-6923 -2498)"/><path class="cls-28" d="M7272.79,2665.74c.48,1.55.78,3.28,3.09,2.93,2.16-.34,2.83-1.9,3.15-3.77,1.24,2.22,1.26,4.73,1.72,7.14-8.07.05-16.23.72-23.36-4.42-1.28-.91-2.89-.24-4.27.41-1-4.16.73-5.73,4.82-5.05,2.75,1.23,4.82,3.74,8,4.25a6,6,0,0,1,1.33.63C7270.26,2670.23,7272.29,2670,7272.79,2665.74Z" transform="translate(-6923 -2498)"/><path class="cls-41" d="M7108.1,2818.14c2.1-4.68,6.22-7.47,9.89-10.7,1.45-1.27,3.27-2.26,4-4.25,2.31,1.09,5.75,1.95,5.64,4.58-.09,2.36-3.68,2.78-5.84,3.85C7117.24,2813.85,7112.66,2816,7108.1,2818.14Z" transform="translate(-6923 -2498)"/><path class="cls-50" d="M7216.91,2838.94c-1.45,1.48-1.89,3.74-3.78,4.87.47-10.65,1.09-21.29.37-32C7218.27,2820.47,7217.15,2829.76,7216.91,2838.94Z" transform="translate(-6923 -2498)"/><path class="cls-51" d="M7033.91,2678.38c-2.31,7.44-4.23,13.71-6.21,20-.38,1.22-1.22,2-2.63,1.55s-2.8-1.21-2.21-2.76C7025.34,2690.7,7026.49,2683.44,7033.91,2678.38Z" transform="translate(-6923 -2498)"/><path class="cls-34" d="M7185.05,2836c-.32-2.65-2.24-5.48.64-7.8,2.14-1.72,4.63-1.07,6.51.18,3.21,2.13,1.76,5.61,1.74,8.62C7190.23,2840.78,7188,2840.53,7185.05,2836Z" transform="translate(-6923 -2498)"/><path class="cls-52" d="M7176.11,2643.26c.09-4.9-2.69-5.7-6.83-5s-8.49,1.27-12.76,1.71c-6.53.68-6.93,1.23-4.62,7.24.35.92.73,1.84,1.1,2.76-3.6,1.93-5.46.53-6-3.21-.37-2.57-.61-5.16-.91-7.74,8.22-1.45,16.61-1.9,24.72-4a8.44,8.44,0,0,1,5.37,0,2.9,2.9,0,0,1,1.06,1.24C7177.17,2638.65,7177.22,2641.05,7176.11,2643.26Z" transform="translate(-6923 -2498)"/><path class="cls-45" d="M7046.12,2716.79c-6.48,1.76-7.48,6.7-7.17,12.39-.18-.28-.54-.58-.51-.83.76-6-2.13-9.45-7.56-11.25,11.79,2.53,16.51-5,13.12-15.87,4.91,3.68,5.85,7.21,3.34,12.45C7046.86,2714.68,7046.52,2715.75,7046.12,2716.79Z" transform="translate(-6923 -2498)"/><path class="cls-53" d="M7237.22,2807.89c-5-1.89-9.25-3.48-13.47-5.09-.72-.27-2-.6-1.53-1.48,1.46-2.85,4.37-3.83,7.13-4.89,1.95-.75,3.09.21,3.83,2C7234.4,2801.39,7235.7,2804.34,7237.22,2807.89Z" transform="translate(-6923 -2498)"/><path class="cls-41" d="M7168.76,2784.09c-2.77,2.14-7.17,1.51-9,5.26-1.7-3.24-3.73-6.36-3.9-10.19,1.2-4.73,4.33-3.26,7.31-2.28Z" transform="translate(-6923 -2498)"/><path class="cls-54" d="M7211,2568.09c-7.41-5.84-15.7-10.19-24.06-14.93l17.14,4a.87.87,0,0,0,0,.92c2,1.67,4.64,2.38,6.56,4S7214.83,2565.87,7211,2568.09Z" transform="translate(-6923 -2498)"/><path class="cls-24" d="M7205,2907.1c-3.66,4.64-2.68,10.84-5.85,16.78-1.9-6.52-.88-12.37-1-18.12a13,13,0,0,0,1.06-9c2.2.88,2.33,1.09,2.69,4.61C7202.08,2903.75,7201.61,2906.47,7205,2907.1Z" transform="translate(-6923 -2498)"/><path class="cls-3" d="M7089,2677.05c4.41-4.34,7.72-9.3,8.91-15.49a4.82,4.82,0,0,1,2.42-3.52c1.41.14.87,1.13.82,1.9-.18,3.89,0,7.77-.11,11.66,0,1.55.48,3.3-1.15,4.46-1.14-2.13-.73-4.51-1.07-7.39-3.33,5.84-5.74,12-12.93,13.18A13.48,13.48,0,0,0,7089,2677.05Z" transform="translate(-6923 -2498)"/><path class="cls-3" d="M7182.42,2786.4c-3.28-4.32-7.46-7.22-10.91-11.13,4.25.42,9.06-2.41,12.32,1.64C7186.07,2779.69,7185.17,2783.17,7182.42,2786.4Z" transform="translate(-6923 -2498)"/><path class="cls-51" d="M7056.53,2702.9c-2.61-6.7-5.2-13.26-7.72-19.84a2,2,0,0,1,1.22-2.85c1.23-.41,1.7.65,2.08,1.59,2.08,5.24,4.21,10.46,6.22,15.72C7059.07,2699.47,7059.05,2701.4,7056.53,2702.9Z" transform="translate(-6923 -2498)"/><path class="cls-30" d="M7238.08,2633c-6.73.73-13.63-1.35-20.25,1.25a82.07,82.07,0,0,1-5-16.12c.13.11.34.2.37.33,3.39,12.91,13.92,12.23,23.92,12.58C7237.42,2631.67,7237.75,2632.33,7238.08,2633Z" transform="translate(-6923 -2498)"/><path class="cls-55" d="M7295.05,2661c-1.17-5.56-3.16-10.74-7.06-15-4.23-2.67-4.38-3.59-1-6.12a43.08,43.08,0,0,1,12.23,20.18C7298.35,2662.59,7296.82,2662.29,7295.05,2661Z" transform="translate(-6923 -2498)"/><path class="cls-56" d="M7151,2810.24c0,1.81,0,3.61,0,5.41,0,6.62,0,6.67,6.45,5.7a4.7,4.7,0,0,1,4.4,1.56,8.23,8.23,0,0,1-4.38,4.52c-5.79,3-7.74,1.86-7.52-4.5C7150.12,2818.7,7149.15,2814.34,7151,2810.24Z" transform="translate(-6923 -2498)"/><path class="cls-56" d="M7200.1,2820c3.68-.38,7,3.24,10.84,1a18,18,0,0,1,.27,3.41c-.2,2,1.24,5.48-.7,5.69-2.77.3-6.29-.72-8-3.75A45.51,45.51,0,0,1,7200.1,2820Z" transform="translate(-6923 -2498)"/><path class="cls-43" d="M7165,2635.06c1.66-2.07,4.21-1.6,6.3-1.78,3.73-.33,5-2.13,4.64-5.53-.57-5.79-1.25-11.57-.87-17.41,0-.83-.35-2.23,1.24-2.08.29,0,.48,1.08.71,1.66-1.07.68-.69,1.49-.46,2.52a63.27,63.27,0,0,1,.7,23.83l-.53-.48c-2.09-1.39-4.09.24-6.13.19S7166.65,2636.62,7165,2635.06Z" transform="translate(-6923 -2498)"/><path class="cls-38" d="M7089.05,2619.09c-3.94,3.94-8.15,7.62-12,11.78,2.8-6.85,5.86-13.44,10.92-18.88C7092.6,2613.69,7089.89,2616.54,7089.05,2619.09Z" transform="translate(-6923 -2498)"/><path class="cls-15" d="M7103,2656h-.86a4.23,4.23,0,0,1,.12-6l2.75-1c3.3-2.49,7.13-3.82,11-5,2-.57,2.9.07,2.12,2.22L7118,2648C7113.88,2652.39,7108,2653.42,7103,2656Z" transform="translate(-6923 -2498)"/><path class="cls-57" d="M7052.19,2550.29l-.15-12.19c3.21.07,7.66-1.43,9.07,1.75,1.1,2.49-3.32,4.31-5.07,6.61A39.78,39.78,0,0,1,7052.19,2550.29Z" transform="translate(-6923 -2498)"/><path class="cls-28" d="M7059.3,2741.94c4.8,1.34,8.89.55,11.73-3.94.66,2.78,5.32,5.35.84,8.41C7067.18,2749.61,7063.59,2748.19,7059.3,2741.94Z" transform="translate(-6923 -2498)"/><path class="cls-58" d="M7189.91,2786.94q-3.08,7-6.14,14l-5.59,8.34-1.23-1.35c-1.05-3.56,2.26-5.55,3-8.46,1.93-4,4.08-7.95,6-12s2.74-8.52,5-12.45l1.38.12a4.54,4.54,0,0,1,1.45,4.67A8.08,8.08,0,0,1,7189.91,2786.94Z" transform="translate(-6923 -2498)"/><path class="cls-17" d="M7141.92,2641c-5.38,1.4-10.78,2.74-16.14,4.24-2.26.63-3.46,0-3.82-2.3v0c4.22-3.68,9.79-3.36,14.74-4.82,1.5-.45,3.45-1.64,5.19-.12Z" transform="translate(-6923 -2498)"/><path class="cls-51" d="M7295.05,2661c1.46,0,2.94,0,4.17-1,1.35,6.35.32,7.49-6,6.52q-3.18-.48-6.31-1.16a10.86,10.86,0,0,1-2.18-1.16C7288.22,2662.25,7292.39,2663.84,7295.05,2661Z" transform="translate(-6923 -2498)"/><path class="cls-59" d="M7139,2788c3.06,0,5.52,1,7,3.91-2.6,1.08-5.17,2.24-7.81,3.21-1.64.6-3.32.58-4.44-1.11a3.57,3.57,0,0,1-.44-3.78c1.19-2.08,2.93-.35,4.44-.36.77,0,1.83,1.48,2.28-.22C7140.08,2789.22,7139.32,2788.55,7139,2788Z" transform="translate(-6923 -2498)"/><path class="cls-60" d="M7133,2758c-3.77.81-7.14-2.68-11-1-2.38-3.47-2.78-7.76-4.39-11.8C7123.05,2749.08,7127.31,2754.44,7133,2758Z" transform="translate(-6923 -2498)"/><path class="cls-61" d="M7161.89,2827.81c.22,8.07,3.34,15.2,7.11,22.12-.84.6-1.68,1.1-2.71.38C7161.54,2847,7158.82,2833.12,7161.89,2827.81Z" transform="translate(-6923 -2498)"/><path class="cls-43" d="M7245.13,2643a6.23,6.23,0,0,1,3.8,4.72c1.75,9.74,1.83,9.71,11.79,11.27a10.23,10.23,0,0,1,2.24.93,40.12,40.12,0,0,0-9.42.1c-3.06.5-4.79-.8-5.84-3.9C7246.23,2651.85,7245.91,2647.41,7245.13,2643Z" transform="translate(-6923 -2498)"/><path class="cls-62" d="M7156,2951.24c-.72,1.08-1.37,2.24-2.19,3.25s-1.73.21-2.47-.38a18.8,18.8,0,0,0-5.73-2.87c-1.37-.48-4.49,1-3.74-2.21.6-2.61,4.32-3.68,5.53-2.86,2.56,1.74,4.88,3.66,8,4.28C7155.59,2950.49,7155.73,2950.94,7156,2951.24Z" transform="translate(-6923 -2498)"/><path class="cls-63" d="M7147.47,2776c2.25-3.54,3.95-3.56,5.07.75.37,1.43.91,2.83,1.37,4.24-.36,3.81-2.71,4.76-6.09,4.24a4.16,4.16,0,0,1-2.93-3.21C7143.53,2779.09,7145.74,2777.67,7147.47,2776Z" transform="translate(-6923 -2498)"/><path class="cls-17" d="M7165,2635.06c3.87.9,8-1.94,11.73.73-8.61,1.25-17.23,2.48-25.84,3.79a7.09,7.09,0,0,1-4.78-.55v-1Z" transform="translate(-6923 -2498)"/><path class="cls-59" d="M7209,2790a20.77,20.77,0,0,1,5.35-8.06c1.44-1.43,3.64-1.25,5.47,0-2.75,1.08-6,1.78-3.45,6,.75,1.27,2.29,3,.76,4.38-1.35,1.18-3-.37-4.52-.86C7211.39,2791,7210.22,2790.45,7209,2790Z" transform="translate(-6923 -2498)"/><path class="cls-30" d="M7257.79,2628.09c-4.39,3.53-8.77,7-14.84,7l-1.35-3.82c.61-.22,1.28-.73,1.82-.61,5.94,1.31,8.81-2.6,11.6-6.69Z" transform="translate(-6923 -2498)"/><path class="cls-64" d="M7160.72,2867.26c-.36-5.66-1.07-11.19.13-16.78,4.71,2.39,6.08,5.22,2.88,9.68C7162.27,2862.2,7161.7,2864.87,7160.72,2867.26Z" transform="translate(-6923 -2498)"/><path class="cls-41" d="M7189.91,2786.94c.69-2.32,1.39-4.64,2.08-7,3-2.44,4.86-1.55,5.81,2,.12,4.47.71,9-.62,13.36C7196.54,2787.69,7196.54,2787.69,7189.91,2786.94Z" transform="translate(-6923 -2498)"/><path class="cls-34" d="M7191.61,2824.88c1.17-6.37,2.84-12,6-17.11.77-1.26,1.8-2.78,3.53-1.4s0,2.3-.84,3.13a12.44,12.44,0,0,0-4,9.83C7196.47,2822.27,7194.92,2823.84,7191.61,2824.88Z" transform="translate(-6923 -2498)"/><path class="cls-65" d="M7129.1,2675.2c-4.51,8-6.66,16.72-8.14,25.66-2-5.18-1.54-10.51-1-15.85l1.59,2.59c1.52-3.27,2.82-6.34,4.37-9.28C7126.6,2677,7126.68,2674.83,7129.1,2675.2Z" transform="translate(-6923 -2498)"/><path class="cls-4" d="M7069.87,2679.72c.54-4,2.36-5.12,5.74-2.54,1.92,1.46,3.72,3.07,5.58,4.62-2,4-5.61,1.94-8.49,2C7070.55,2683.82,7069,2682.32,7069.87,2679.72Z" transform="translate(-6923 -2498)"/><path class="cls-66" d="M7154,2850.76a2.88,2.88,0,0,1-2,2.19c-1.72-5.43-2.57-10.93-1.18-16.57.32-1.31.05-3.66,2-3.21,1.82.42.72,2.52.62,3.9C7153.12,2841.66,7152.05,2846.26,7154,2850.76Z" transform="translate(-6923 -2498)"/><path class="cls-67" d="M7188.86,2949.47c2.74-1,5.52-1.63,7.63-3.58,1.83-1.7,3.09-.45,4.16.82,1.65,2-.64,2.27-1.5,3.29C7195.75,2954.11,7192.47,2954.51,7188.86,2949.47Z" transform="translate(-6923 -2498)"/><path class="cls-51" d="M7287.87,2670.36c3.31,3.68,6.63,7.34,9.92,11,.73.83,2,1.72.61,2.9a1.93,1.93,0,0,1-2.72-.28,57.39,57.39,0,0,1-9.75-12Z" transform="translate(-6923 -2498)"/><path class="cls-23" d="M7203.09,2831.8c2.75,1.77,4.19,11.25,1.9,13.07-.66.52-1.58-.06-2.18-.71-.61-2.69-1.61-4.64-4.74-2.43-1.91-.48-2.13-1.79-1.75-3.47a2.46,2.46,0,0,1,2.85-2.14,5.59,5.59,0,0,0,3.79-1C7202.2,2834,7202,2832.86,7203.09,2831.8Z" transform="translate(-6923 -2498)"/><path class="cls-26" d="M7287,2639.85c-1.69,2.38-.5,4.27,1,6.12-2.51.62-3.46,2.84-4.79,4.67-1,1.38-2,1.8-2.81-.12-1-2.37,2.51-10.7,5-11.5C7285.77,2638.89,7286.44,2639.56,7287,2639.85Z" transform="translate(-6923 -2498)"/><path class="cls-45" d="M7337,2854.91c6.08,2.76,8.59,8.22,10.6,14,.69,2,.88,4.19,2.21,6,0,1.34-.17,2.61-1.82,3.43C7346.67,2869.37,7342.21,2862,7337,2854.91Z" transform="translate(-6923 -2498)"/><path class="cls-68" d="M7237.18,2589.9c-1.75,1.8.27,4.34-1.23,6.19a54.85,54.85,0,0,1-11-12A48.27,48.27,0,0,1,7237.18,2589.9Z" transform="translate(-6923 -2498)"/><path class="cls-69" d="M7287,2660.46c-3.73,1.24-4.36-.72-4.56-2.82-.15-1.6.55-3.21,2.46-3,3,.36,7.12,1.25,7.26,4.16C7292.36,2662.45,7288,2659.1,7287,2660.46Z" transform="translate(-6923 -2498)"/><path class="cls-70" d="M7203.09,2831.8l-.13,3.33c-4-.29-6.62-2.08-8-6.09-.75-2.16-.05-3.16,1.47-4,1.84-1,2.34.68,2.76,1.8A10.87,10.87,0,0,0,7203.09,2831.8Z" transform="translate(-6923 -2498)"/><path class="cls-22" d="M7124.88,2800.05c-4.56-1-4.37-3-1-5.46,1.53-1.14,2.47-3.12,4.77-3.41,1,2.26.66,4.94,2.31,6.92C7130,2802.18,7127,2799.76,7124.88,2800.05Z" transform="translate(-6923 -2498)"/><path class="cls-49" d="M7165.86,2809.79c0,3.26,2.15,5,4.46,6.73,2.88,2.19,6.52,3.42,8.57,6.67-3.83-1-7.23-3.31-11.29-3.65-2.42-.2-2.89-1.87-2.64-3.9S7165.55,2811.74,7165.86,2809.79Z" transform="translate(-6923 -2498)"/><path class="cls-71" d="M7163.18,2776.88l-7.31,2.28c-.87-2.3-3.12-5.66-.42-6.75C7158.42,2771.21,7162.31,2772.41,7163.18,2776.88Z" transform="translate(-6923 -2498)"/><path class="cls-53" d="M7147.82,2785.26l6.09-4.24q1.53,4,3.05,8l-6,1C7150.67,2787.88,7149.13,2786.65,7147.82,2785.26Z" transform="translate(-6923 -2498)"/><path class="cls-72" d="M7183.06,2632c4.57,2.21,5.87-.25,6.08-4.26a47,47,0,0,1-.06,19.48c-1.84-.51-2-2.29-2.12-3.59-.2-1.6,0-3.09-2.05-3.47A21.87,21.87,0,0,1,7183.06,2632Z" transform="translate(-6923 -2498)"/><path class="cls-73" d="M7124.88,2800.05l6.07-2c3.37.65,4.71,2.22,3,5.71-1.33,2.77-2.5,3.16-4.54.65A51.52,51.52,0,0,0,7124.88,2800.05Z" transform="translate(-6923 -2498)"/><path class="cls-43" d="M7141.89,2638.07,7122,2643a10.23,10.23,0,0,1,.88-5.29c1.1,2.43,3,2.1,5.08,1.6,4.67-1.14,9.37-2.2,14.05-3.29Z" transform="translate(-6923 -2498)"/><path class="cls-74" d="M7187.07,2788a58.39,58.39,0,0,1-5.95,12.17c-1.21.4-2.27.53-2.27-1.26q3-6,6-12.06C7186,2786.4,7187.08,2786.18,7187.07,2788Z" transform="translate(-6923 -2498)"/><path class="cls-41" d="M7136.34,2767c-2.32,1-3.6,1.72-4.95,2.2-1.15.42-2.29,2.28-3.43,1a12.19,12.19,0,0,1-2.65-5.24c-.33-1.48,1.18-1.76,2.44-1.29C7130.33,2764.63,7132.88,2765.66,7136.34,2767Z" transform="translate(-6923 -2498)"/><path class="cls-56" d="M7184.91,2640.19c.41-1.2.48-2.84,2.34-2.53,1.41.23,1.56,1.55,1.62,2.71.11,2.29.14,4.58.21,6.88-2.49,2.08-3.42.17-3.88-1.76A29.1,29.1,0,0,1,7184.91,2640.19Z" transform="translate(-6923 -2498)"/><path class="cls-75" d="M7004,2546c1.59,5,6.14,6.71,10.07,9.11-4.24,1-8-1.13-11.9-2A17.36,17.36,0,0,1,7004,2546Z" transform="translate(-6923 -2498)"/><path class="cls-30" d="M7211,2568.09c1.62-2.86-.76-4-2.32-5.57s-4.45-1.59-4.59-4.49a6.4,6.4,0,0,1,1.46.12c8.81,2.5,9.13,3,7.35,11.93C7212.23,2569.42,7211.6,2568.75,7211,2568.09Z" transform="translate(-6923 -2498)"/><path class="cls-76" d="M7103,2656a59.42,59.42,0,0,1,14.94-8c.06,2.77.16,5.55-.82,8.22,0-3.74-1.16-4.86-4.93-3C7109.37,2654.62,7106.38,2656.12,7103,2656Z" transform="translate(-6923 -2498)"/><path class="cls-77" d="M7197.86,2870.05c2.05-1.17,1.2-4.63,4.08-5.13l-1.11,18.15A47,47,0,0,1,7197.86,2870.05Z" transform="translate(-6923 -2498)"/><path class="cls-78" d="M7181.91,2841.87c-1.22-2.36-3.53-2.81-5.81-3.39-2.82-.71-5.74-1.26-8.4-3.79l3.41-.68c1.74,2.83,4.71,1.8,7.2,2.32C7181.35,2837,7184,2837.9,7181.91,2841.87Z" transform="translate(-6923 -2498)"/><path class="cls-79" d="M7206,2859l-2.22,1.17c-.78-2.18-1.61-4.34-2.31-6.54-.42-1.34-1.44-3.34.31-3.9s3.63.85,4,2.84A44.29,44.29,0,0,1,7206,2859Z" transform="translate(-6923 -2498)"/><path class="cls-40" d="M7089.05,2619.09c-.14-2.4.38-4.91-1.1-7.1a25.63,25.63,0,0,1,6.06-6c.15,3.39-2.58,6.49-1,10Q7091,2617.57,7089.05,2619.09Z" transform="translate(-6923 -2498)"/><path class="cls-3" d="M7069.87,2679.72c3,4.86,7.13,3.64,11.32,2.08h4.74c-5.1,4.72-11,3.55-16.89,2.22A5,5,0,0,1,7069.87,2679.72Z" transform="translate(-6923 -2498)"/><path class="cls-80" d="M7274.83,2760c-1.73-2.46-3.55-4.88-3.91-8v0a37,37,0,0,0,2.12-3.79c1.91-3.32,2.13-.3,2.83.82C7276.37,2752.73,7275.65,2756.34,7274.83,2760Z" transform="translate(-6923 -2498)"/><path class="cls-81" d="M7091.05,2586.92c-1.52,6.29-5.08,11.67-7.82,17.41l-1.16-1.26C7084.46,2597.35,7086.46,2591.41,7091.05,2586.92Z" transform="translate(-6923 -2498)"/><path class="cls-23" d="M7044.15,2667.21c-5.28-1.56-5.9-2.8-4-8.11C7041.86,2661.61,7046.33,2662.75,7044.15,2667.21Z" transform="translate(-6923 -2498)"/><path class="cls-8" d="M7202.24,2789.81l-2.22.18c-.18-4-.37-8.06-.61-13.36,2.71,3.67,5.12,6,3,9.84C7201.91,2787.35,7202.27,2788.69,7202.24,2789.81Z" transform="translate(-6923 -2498)"/><path class="cls-82" d="M7013.1,2834l-1-1c2.27-3.47-.62-7.49,1.18-11,.47-.85.95-1.7,1.43-2.55A28.11,28.11,0,0,1,7013.1,2834Z" transform="translate(-6923 -2498)"/><path class="cls-49" d="M7185.05,2836a7.63,7.63,0,0,0,8.89,1c.36,3.23-1.12,4.27-4.28,4.18C7186,2841,7184.69,2839.36,7185.05,2836Z" transform="translate(-6923 -2498)"/><path class="cls-83" d="M7197.8,2782c-1.52-1.88-3.62-2.07-5.81-2,.11-1.61.21-3.22.32-4.83C7197.63,2774.65,7197.93,2775,7197.8,2782Z" transform="translate(-6923 -2498)"/><path class="cls-3" d="M7275.86,2749c-3.21-1.61-2.74,2.92-4.95,3l3.5-12.78C7276.09,2743.28,7275.65,2746.18,7275.86,2749Z" transform="translate(-6923 -2498)"/><path class="cls-43" d="M7098.93,2652c-2.63,0-3.36-2.17-4.5-3.89-1.53-2.29-3.05-4.58-5.45-6.1l.76-1C7095.13,2642.7,7096.56,2647.74,7098.93,2652Z" transform="translate(-6923 -2498)"/><path class="cls-84" d="M7187.07,2788l-2.2-1.15c1.83-4,2.51-8.66,6.06-11.82A40.07,40.07,0,0,1,7187.07,2788Z" transform="translate(-6923 -2498)"/><path class="cls-84" d="M7172,2784c-2.37-3-5.19-5.68-7.4-9.88,4.65,1.24,6.46,4.84,9.42,6.86C7174,2782.46,7173.69,2783.69,7172,2784Z" transform="translate(-6923 -2498)"/><path class="cls-70" d="M7198.07,2841.73c.7-2.23,2.5-4.33,4.45-3.45,2.53,1.15,1.49,3.82.29,5.88Z" transform="translate(-6923 -2498)"/><path class="cls-85" d="M7147.05,2618.27c3.33-1.69,6.44-4.13,10.58-3.24-4.07,1.71-7.67,4.19-11.59,6.06l-1-2.05C7145.5,2618.27,7146.38,2618.55,7147.05,2618.27Z" transform="translate(-6923 -2498)"/><path class="cls-74" d="M7152.65,2959.13a6.32,6.32,0,0,1-1.77.22c-2.55-.62-5.18-1.26-6.29-4-.26-.64.56-1.27,1.22-1.13C7148.68,2954.8,7151.29,2955.84,7152.65,2959.13Z" transform="translate(-6923 -2498)"/><path class="cls-62" d="M7213.83,2796.88c2.3,0,3.17-.21,3.88,0,1.87.65,3.38-3.81,4.75-.78.89,2-2.09,3.6-3.7,4.51C7215.77,2802.35,7216.36,2798.73,7213.83,2796.88Z" transform="translate(-6923 -2498)"/><path class="cls-86" d="M7172,2784a4,4,0,0,1,2-3l3,3c1,1.7,1.86,3.4,0,5.12C7174.91,2787.82,7173.49,2785.86,7172,2784Z" transform="translate(-6923 -2498)"/><path class="cls-87" d="M7239,2659.2l1.34,2.7c-4.21-2.5-7.06-5.7-11.27-6-.36-1.22.21-1.73,1.37-1.8C7233.68,2655.21,7237.19,2655.82,7239,2659.2Z" transform="translate(-6923 -2498)"/><path class="cls-60" d="M7118.17,2646.32c-1.13-2.13-2.81-1.24-4.32-.69-3,1.08-5.89,2.27-8.83,3.42,1.64-3.58,5.57-3.29,8.37-4.9a35.37,35.37,0,0,1,5.42-2.1C7118.85,2643.51,7119,2645,7118.17,2646.32Z" transform="translate(-6923 -2498)"/><path class="cls-84" d="M7178.85,2798.91l2.27,1.25-4.17,7.77C7173.47,2804.06,7178.05,2801.88,7178.85,2798.91Z" transform="translate(-6923 -2498)"/><path class="cls-88" d="M7177,2789.13c0-1.71,0-3.42,0-5.12,1.51,1,3,2.06,3.58,3.82.47,1.45.19,3.31-1.25,3.79C7177.69,2792.16,7177.44,2790.3,7177,2789.13Z" transform="translate(-6923 -2498)"/><path class="cls-78" d="M7190.41,2960.26l7.53-.53C7195.74,2962.8,7193.21,2963.35,7190.41,2960.26Z" transform="translate(-6923 -2498)"/><path class="cls-89" d="M7056.61,2675.64c0,1.19-.43,2-1.71,1.84a2.51,2.51,0,0,1-2.48-2.55,1.73,1.73,0,0,1,1.78-1.93C7055.83,2673.05,7056.2,2674.42,7056.61,2675.64Z" transform="translate(-6923 -2498)"/><path class="cls-48" d="M7007.07,2833c.91-3,1.12-6.26,2.87-9C7012.2,2830.18,7011.84,2831.32,7007.07,2833Z" transform="translate(-6923 -2498)"/><path class="cls-88" d="M7139.54,2798c1.23.11,1.22.93.94,1.76-.58,1.67-.72,3.8-3,4.12-1.13.17-1.21-.9-1-1.75C7137,2800.4,7137.37,2798.54,7139.54,2798Z" transform="translate(-6923 -2498)"/><path class="cls-90" d="M7147.47,2776c.06,2.4-1.3,4.2-2.58,6-2.13.56-2.86-.3-2.11-2.27A5.22,5.22,0,0,1,7147.47,2776Z" transform="translate(-6923 -2498)"/><path class="cls-91" d="M7142.3,2624.24c-1.06,1.26-2.16,2.5-3.18,3.79a17.88,17.88,0,0,1-3.25,3.56c.19-3.76,2.45-6.26,5.17-8.49Z" transform="translate(-6923 -2498)"/><path class="cls-92" d="M7213.31,2802c-2.8-1.83-2.85-4.45-3.38-6.79C7212.65,2796.35,7213.77,2798.35,7213.31,2802Z" transform="translate(-6923 -2498)"/><path class="cls-49" d="M7230.48,2654.08l-1.37,1.8c-2.1.13-4.26.65-6.13-.84C7225.35,2653.77,7227.72,2652.36,7230.48,2654.08Z" transform="translate(-6923 -2498)"/><path class="cls-60" d="M7279,2744c.73-.52.39-2,1.59-1.91.19,0,.31,1.41.46,2.17a14.57,14.57,0,0,1-2.08,7.35C7277.17,2748.43,7279.35,2746.25,7279,2744Z" transform="translate(-6923 -2498)"/><path class="cls-22" d="M7265.89,2667.23c-4,1.05-5.85-1.79-8-4.25C7261.61,2662.49,7263.44,2665.45,7265.89,2667.23Z" transform="translate(-6923 -2498)"/><path class="cls-93" d="M7147.05,2618.27l-2,.77c-.51-2.24.39-4.66-.84-6.82-.13-1.23-.58-2.56,1.17-3.37C7147.21,2611.8,7144.06,2615.65,7147.05,2618.27Z" transform="translate(-6923 -2498)"/><path class="cls-94" d="M7199.15,2896.79c1.25,2.83.94,5.82.75,8.75-.11,1.82-1.08,1.05-1.81.22,0-1.32,0-2.63.05-4C7199.16,2900.27,7198.82,2898.47,7199.15,2896.79Z" transform="translate(-6923 -2498)"/><path class="cls-95" d="M7039,2658l-2.89,1-5.2-4.68C7034.8,2654.14,7036.45,2657,7039,2658Z" transform="translate(-6923 -2498)"/><path class="cls-74" d="M7157.35,2962.52c-1.79,2.25-4.11,1.17-6.32,1.05A7.7,7.7,0,0,1,7157.35,2962.52Z" transform="translate(-6923 -2498)"/><path class="cls-77" d="M7081.43,2814.86c1.35,3.25,0,5.82-1.72,8.3Q7080.57,2819,7081.43,2814.86Z" transform="translate(-6923 -2498)"/><path class="cls-96" d="M7085.05,2860l2.16-6c2,.09,1.15,1.32.94,2.3l-5.13,24.19C7081.42,2873.46,7083.84,2866.79,7085.05,2860Z" transform="translate(-6923 -2498)"/><path class="cls-97" d="M7088.15,2856.33c-.31-.77-.63-1.53-.94-2.3,1-3,2-6,3-9,1-.17,1.48.09,1.05,1.17Z" transform="translate(-6923 -2498)"/><path class="cls-98" d="M7091.24,2846.25l-1.05-1.17c1.26-3.49,2.1-7.17,4.76-10C7094.54,2839.08,7092.8,2842.63,7091.24,2846.25Z" transform="translate(-6923 -2498)"/><path class="cls-99" d="M7211.58,2633.19c.16,1.56.28,3.37-1.95,3.09-5.2-.68-10.57.83-15.66-1.22,3.78-1.85,7.83-.74,11.76-1C7207.71,2633.93,7209.71,2634,7211.58,2633.19Z" transform="translate(-6923 -2498)"/><path class="cls-49" d="M7102.27,2650.05l-.12,6q-.15,9.54-.29,19.06c-1.78-.21-1.35-1.64-1.3-2.66.19-4.41-.6-8.86.46-13.23l-.74-1.15q-.16-3-.35-6c.43-1.73.87-3.45,1.32-5.23C7102.7,2647.61,7101.82,2649,7102.27,2650.05Z" transform="translate(-6923 -2498)"/><path class="cls-96" d="M7254.7,2802.23q3.77,10.77,7.55,21.54l-1.23.44a145.17,145.17,0,0,1-7.52-21.59Z" transform="translate(-6923 -2498)"/><path class="cls-87" d="M7253.94,2846.83c-3.22-3.68-2.86-8.77-5.07-12.84,0-.49-.13-1.12.12-1.44,1-1.36,1.36.16,1.53.6C7252.2,2837.57,7254.5,2841.85,7253.94,2846.83Z" transform="translate(-6923 -2498)"/><path class="cls-96" d="M7087.91,2706c.38-.63.21-1.87,1.37-1.61.39.09.58,1.05.87,1.61,0,6.21,2,12.21,2.09,18.43C7088.59,2718.74,7089,2712.2,7087.91,2706Z" transform="translate(-6923 -2498)"/><path class="cls-100" d="M7101,2659.19c.13,5.3-.66,10.66.84,15.89.1,3.07.89,6.15,0,9.41-2.49-2.54-1.55-5.64-2-8.43C7100.6,2670.46,7098.47,2664.66,7101,2659.19Z" transform="translate(-6923 -2498)"/><path class="cls-1" d="M7220,2730l4.37,1.67a73.56,73.56,0,0,1-17.34,12.18,1.38,1.38,0,0,1-2-.77c-3-.34-3.25,2.65-4.5,4.14-4.07,4.82-3.95,5-8.19.65-1-1-1.48-.92-2.25,0-12.35,1.48-23.35-1.61-32.66-10a15.08,15.08,0,0,0-7.93-4.14l5.54-1.59a3.8,3.8,0,0,1,2.15-2.84c8.14-5.07,10.48-12.8,10.89-21.95.45-9.84-1.43-19.21-3.74-28.59,1.68-2.05,1-5,2.65-7.09a9.46,9.46,0,0,1,5.19-3.7c11.92-4.13,23.73-4.3,35.38,1.12a22.16,22.16,0,0,1,7.23,5.18,18.08,18.08,0,0,1,1.79,4.79c-1.14,7.54-3.55,14.82-3.38,22.64.18,8.69.44,17.2,5.92,24.49C7220.05,2727.41,7220.73,2728.44,7220,2730Z" transform="translate(-6923 -2498)"/><path class="cls-101" d="M7165.6,2678.05c4.79,13,6.49,26.14,2.66,39.79-2,7.2-6.66,11.52-13.25,14.25-14.26,2.17-24.68-11.83-24.81-25.34,0-2.14,0-4.29,0-6.44.16-.47.47-1,.27-1.44-5.67-12.94,8.69-27.41,21.33-30.55C7158.25,2666.71,7165.43,2672.06,7165.6,2678.05Z" transform="translate(-6923 -2498)"/><path class="cls-76" d="M7165.6,2678.05c-10.44-11.92-26.84-7.53-32.75,8.63-1.63,4.45-1.24,9.2-2.67,13.63-.1-.6-.19-1.21-.28-1.81-2.78-2.14-4.31-4.82-3.7-8.45,5.65-16.58,21.26-25.84,38.8-23,3.65.71,3,3.53,2.94,6,.21,1.1.41,2.2.62,3.3C7169.19,2679.74,7167.4,2678.9,7165.6,2678.05Z" transform="translate(-6923 -2498)"/><path class="cls-70" d="M7146,2748.05c-5.6,0-11.17-.09-15.71-4.11-1-4.8,1.64-7.19,5.77-8.31a16.08,16.08,0,0,1,12.5,1.41c5.21,2.93,5.23,6.37.07,9.61C7147.8,2747.17,7146.89,2747.59,7146,2748.05Z" transform="translate(-6923 -2498)"/><path class="cls-102" d="M7190.06,2747.8c-2.44-3.88-2.45-3.92-2.59-7.88,4.3,2.22,5.57,6.94,9,10.16l8-10.19c1.66,1,0,2.23.58,3.15l-6.12,8.68-2.1,2.19-2.69,0Z" transform="translate(-6923 -2498)"/><path class="cls-52" d="M7126.2,2690.05c1.11,2.87,4.32,4.81,3.7,8.45-1.75,2.24-1.63,7.25-6.72,4.54C7122.4,2698.3,7124.06,2694.12,7126.2,2690.05Z" transform="translate(-6923 -2498)"/><path class="cls-14" d="M7167.94,2673.06a14.06,14.06,0,0,1-2.94-6c5-2.46,1.84-5.79.95-8.88,7.67-3.18,15.78-2.42,23.66-2,10.62.61,21,3.25,31.35,5.68.38.95,1.28,1.65,1.35,2.75-2.07,4-3.7,8.37-8.25,10.42-7-3.42-13.85-7.18-21.91-7.48C7183.58,2667.24,7175.3,2668.13,7167.94,2673.06Z" transform="translate(-6923 -2498)"/><path class="cls-101" d="M7221,2663.93c-.85-.67-1.36-1.34-.06-2.07,9.21-4,13.21-2.79,20.92,6.36,5.89,12.84,5.36,26.17,3,39.64-2.3-3.55-2.82-7.71-4-11.62-1-11.75-4.75-22-15.34-28.58A16.82,16.82,0,0,1,7221,2663.93Z" transform="translate(-6923 -2498)"/><path class="cls-103" d="M7220,2730c-5.61-5-7.18-11.78-8.05-18.74-1.36-10.87.19-21.51,3.2-32-.64-3.57,1.57-6.14,3.39-8.66,2.33-3.21,6.67-3.52,10.06-1.18,7.53,5.19,11.5,16.44,9,25.41a2.12,2.12,0,0,0,.29,1.41c-.67,7.61-.83,15.28-2.84,22.7C7232.6,2727.75,7228.53,2730.67,7220,2730Z" transform="translate(-6923 -2498)"/><path class="cls-76" d="M7237.85,2696.22c-1.08-5.19-2-10.44-3.29-15.57-1.28-5-3.25-9.94-9.22-10.44s-8.54,4-10.2,9c-.36-1.41-.72-2.81-1.09-4.21q3.49-5.55,7-11.1c1.78-1.06,3.31-.14,4.55.89,9.52,7.91,17.62,16.67,17.4,30.2-1.76,1.4-2.9.2-4.05-1C7238.56,2694.77,7238.21,2695.5,7237.85,2696.22Z" transform="translate(-6923 -2498)"/><path class="cls-104" d="M7238.92,2694.05l4.05,1c1.67,4.12-.42,8.82,1.94,12.84-.17.71-1.17,1.36-1.23.92C7243,2703.57,7237.85,2699.79,7238.92,2694.05Z" transform="translate(-6923 -2498)"/><path class="cls-105" d="M7235.94,2741.16c4.45,0,9,.49,13-2.2,2.12,6.4-1.81,10.42-6.26,13.33-12.32,8.06-26.05,12.31-40.71,13.71-18.88,1.81-37.45-.41-55.93-4,2.85-1.49,5.81-1,8.77-.51,27.74,4.31,54.22.84,79-12.9a21.91,21.91,0,0,0,2.56-1.53c1.16-.88,3.19-1.32,3.12-2.9-.08-1.82-2.42-1.24-3.54-2.12Z" transform="translate(-6923 -2498)"/><path class="cls-101" d="M7021.07,2677a25.55,25.55,0,0,1-7-19c6.62-.52,12.38,2.06,18,5.1,2.69,1.46,3.42,3.38,1.36,6.08C7030.27,2673.39,7027.27,2677.69,7021.07,2677Z" transform="translate(-6923 -2498)"/><path class="cls-8" d="M7240.45,2739c-2.93-.39-7.77-.06-7.33-4.13.43-3.88,5.19-3.12,8.33-2.42,2.23.5,6.28-.35,5.77,3.6C7246.79,2739.42,7243.28,2738.84,7240.45,2739Z" transform="translate(-6923 -2498)"/><path class="cls-79" d="M7162.92,2719.92c-1.9,9.61-16.24,10.73-23.21,2.92-5.88-6.59-7-14.46-6.53-22.84,1.08-2.91,2.09-5.84,5.24-7.26,3.51-1.57,5.28-.8,7,3.11,0,2.89.34,5.78-.26,8.65-.77,1.82-2.58,1.58-4,2-1.92.58-2.44,1.53-1.91,3.7a25.7,25.7,0,0,0,5.3,10.54c4,4.81,8.9,5,13.41.61.94-.91,1.66-2.1,3.1-2.35A2,2,0,0,1,7162.92,2719.92Z" transform="translate(-6923 -2498)"/><path class="cls-106" d="M7163.17,2684.87c2.11,4.48,2.61,9.26,2.68,14.12-1.43.77-2.37-.11-3.29-1-1.08-1-2.26-1.71-3.79-1.13-2.13,1.37-.86,3.76-1.68,5.52-1.34,2.88-1.45,7.48-5.78,6.87-3.89-.56-5-4.36-4.8-8.15.34-4-.8-8.14.82-12.06,1.19-1.47,2-3.21,3.15-4.67A41,41,0,0,1,7163.17,2684.87Z" transform="translate(-6923 -2498)"/><path class="cls-107" d="M7149,2688.91c-1.7,4.3-.72,8.82-1.05,13.23-4-.08-1.53-3.79-3-5.29a6.17,6.17,0,0,0-.87-.72c-2.4-3.67-4.92-1.16-7.13.1-1.49.86-2.54,2.49-3.79,3.77.89-6.83,1.91-13.61,6.81-19,3.33-.8,5.55,1.17,7.81,3.07A8.32,8.32,0,0,1,7149,2688.91Z" transform="translate(-6923 -2498)"/><path class="cls-55" d="M7147.2,2685.05c-2.87-.52-5.1-2.16-7.21-4.05a7.39,7.39,0,0,1,3.12-2.79c6.51.3,12.93,1,19,3.71l1.09,2.95c-4.14,1.92-8.3,3-12.52.24C7149.47,2686.42,7148.33,2685.86,7147.2,2685.05Z" transform="translate(-6923 -2498)"/><path class="cls-108" d="M7162.08,2681.92c-6.63.31-13.31.93-19-3.71C7149.94,2672.82,7156.14,2674,7162.08,2681.92Z" transform="translate(-6923 -2498)"/><path class="cls-17" d="M7162.92,2719.92l-1.86.24a3.4,3.4,0,0,1-1.53.32c-2.57-.39-4.51-1.5-4.94-4.33-.1-1.08-.2-2.16-.23-3.24.66-1.54,1.12-3.14,1.78-4.67a4.7,4.7,0,0,1,2-1.58,4.92,4.92,0,0,1,6.37,1.57,9.67,9.67,0,0,1,.64,6.89A10.06,10.06,0,0,1,7162.92,2719.92Z" transform="translate(-6923 -2498)"/><path class="cls-79" d="M7165.2,2715.12c-.33-2,0-4.19-1.34-6-.7-1.9-1.74-3.39-4-3.7-1.49-.2-2.82-.74-3.06-2.53.73-2.91-.88-6.15,1.25-8.86,3.9-.4,6.7.92,7.77,4.95C7165.82,2704.37,7166.48,2709.78,7165.2,2715.12Z" transform="translate(-6923 -2498)"/><path class="cls-36" d="M7142.88,2746.08c-1.43-.24-2.9-.42-4.35-.74-2.44-.55-5.63-1.21-5.58-4s3.47-3.48,5.86-4.17a9.45,9.45,0,0,1,4.89.15c2.62.73,6.15,1.28,5.83,4.9S7145.67,2745.62,7142.88,2746.08Z" transform="translate(-6923 -2498)"/><path class="cls-61" d="M7216.93,2683a14,14,0,0,1,.71-1.84c1.79-3.16,3.53-7.16,7.74-6.58s4.87,4.8,5.67,8.36a2.2,2.2,0,0,1-1.56,3.45c-2,.51-2.84,2.19-4.09,3.47C7219.81,2691.07,7217.36,2689.08,7216.93,2683Z" transform="translate(-6923 -2498)"/><path class="cls-109" d="M7216.93,2683c3,1.14,3.09,6.9,8,5a1.33,1.33,0,0,1,1.35-.21c2.4,3.28,2.59,7.05,1.95,10.8a31.19,31.19,0,0,0-.68,5.54c0,2.16-.3,4.57-3.22,4.43s-2.69-2.61-2.95-4.73c-.19-1.63,1.21-3.78-1.33-4.75-1.9-.67-3.28-2.19-5.06-3.06A31.53,31.53,0,0,1,7216.93,2683Z" transform="translate(-6923 -2498)"/><path class="cls-61" d="M7215,2696c4.46-3.07,4.46-3.07,5.16,2.19,2.45,2.66.66,5.92,1.22,8.84a3.8,3.8,0,0,1-1.73,2.48c-3,3.63,1.08,5.49,2.19,8,.9,2,2.86,2.52,4.86,1a16.41,16.41,0,0,0,3.43-2.6,2.7,2.7,0,0,1,2.82.08c-.11,2.46-1.46,4.43-2.81,6.28-3.63,5-9.68,4.55-12.53-.91C7213.39,2713.27,7214.31,2704.62,7215,2696Z" transform="translate(-6923 -2498)"/><path class="cls-110" d="M7233,2694a48.93,48.93,0,0,1,0,21.07,2.39,2.39,0,0,1-2.18-2.33c0-3-2.07-5-3.37-7.4-.07-3.1.33-6.18.45-9.28C7228.85,2691.64,7229.7,2691.29,7233,2694Z" transform="translate(-6923 -2498)"/><path class="cls-111" d="M7233,2694c-2.27-1-3.81-.6-4.16,2.13-3.07-2-.93-5.84-3-8.17l-1,0c-.51-2.35.35-3.72,2.82-3.85,1.25-.06,2.59.22,3.31-1.24A24.2,24.2,0,0,1,7233,2694Z" transform="translate(-6923 -2498)"/><path class="cls-5" d="M7229.09,2706.12c3.08-.83,3.84,1.14,4,3.5.15,1.81,0,3.65-.05,5.47,0,.3-.09.59-.15.88l-1.74,1.23c-2.4,1-4.25.4-5.52-1.88C7224.07,2711.23,7225.33,2708.21,7229.09,2706.12Z" transform="translate(-6923 -2498)"/><path class="cls-112" d="M7024,2674.57c-1.89-.13-6.08-5.43-5.5-7.62.71-2.72,3-4.78,5.79-4.15s6.48,1.08,7.66,4.33C7032.66,2669,7026.06,2674.7,7024,2674.57Z" transform="translate(-6923 -2498)"/><path class="cls-63" d="M7160,2719.9l1,.26c-6.53,9.35-15.76,6.71-20.58-2.18a31,31,0,0,1-3.18-8.9c-.46-2.4,0-4.33,2.71-5a12.1,12.1,0,0,1,.95,1.07c1,3.28.69,6.83,2.39,10,2,3.73,4.76,5.49,8.89,4.83C7154.85,2719.57,7157.41,2719,7160,2719.9Z" transform="translate(-6923 -2498)"/><path class="cls-113" d="M7157.15,2709.41l-1.23,3.5c-2.9,5.46-6.94,5.87-10.46.78-1.72-2.47-3.81-5.23-1.72-8.62l.36-8.94,1-2c2.65.74,1.28,2.85,1.25,4.28-.06,3.27.35,6.4,2.32,9,1.76,2.33,3.78,3.06,5.8,0,.63-.95.63-3.19,2.4-2.4C7159.07,2706.07,7157.32,2707.93,7157.15,2709.41Z" transform="translate(-6923 -2498)"/><path class="cls-71" d="M7143.74,2705.07a43.25,43.25,0,0,0,1.64,5.66c2.33,5.36,6.27,6.13,10.54,2.18l0,3.07a4.45,4.45,0,0,1-4.7,4.09,8.13,8.13,0,0,1-7.08-3.5c-2.71-3.46-2.51-7.77-4.13-11.51l0-1A5.83,5.83,0,0,1,7143.74,2705.07Z" transform="translate(-6923 -2498)"/><path class="cls-114" d="M7157.15,2709.41c-.11-.8-.21-1.6-.41-3.12-1.83,2.16-2.63,5.33-5.69,4.23-3.22-1.15-4.59-3.76-5.22-7.15-.58-3.1.89-6.28-.71-9.24.17-.92.06-2,1.55-2.51.94,3.48-.55,7.25,1.29,10.52.29,2.4,1,5.05,3.61,5.2,2.92.17,3.14-2.9,3.77-5,1-3.53.47-7.16.32-11,1.74.23,1.68,1.85,2.42,2.7l.12,10c1.21,1.37.91,2.7-.08,4Z" transform="translate(-6923 -2498)"/><path class="cls-46" d="M7147.2,2685.05a4,4,0,0,1,3.45.06,3.18,3.18,0,0,1-1.64,3.8C7147.63,2688,7146.78,2686.81,7147.2,2685.05Z" transform="translate(-6923 -2498)"/><path class="cls-115" d="M7140,2705.06c2.48,1.05,2,3.59,2.67,5.5,2.49,7.08,6.42,8.73,13.24,5.42l4.08,3.92C7146.08,2724.91,7140.22,2720.56,7140,2705.06Z" transform="translate(-6923 -2498)"/><path class="cls-63" d="M7158.12,2708.07c0-1.34.05-2.68.08-4,1-1.07,2.12-2.43,3.7-1.5,2.54,1.51,1.93,4.19,2,6.58A9.69,9.69,0,0,0,7158.12,2708.07Z" transform="translate(-6923 -2498)"/><path class="cls-116" d="M7229.09,2706.12a28.75,28.75,0,0,0-2.32,8.83c-1.4,3.25-3.58,3.1-5.83,1.09-3.48-3.12-3.68-5.09-1.11-7.95q.15-5,.31-9.88c.49-1.88,1-3.76,1.48-5.64h1.32c0,3.5-.08,7,0,10.51,0,1.35-.37,3.52,1.68,3.5,1.68,0,1.22-2,1.41-3.27a50.26,50.26,0,0,0-.19-15.34c2.82,2.06,1.71,5.55,3,8.17Z" transform="translate(-6923 -2498)"/><path class="cls-52" d="M7219.83,2708.09c-1.89,3.09.71,4.83,2.17,6.82s3.16,1.05,4.77,0l4.42,2.25-2.1,2.87c-3.47,3.56-5.17,3.59-8.45.17s-3.54-7.65-4.08-11.86c-.17-1.35.51-2.61,2.36-2.29Z" transform="translate(-6923 -2498)"/><path class="cls-71" d="M7218.92,2706.09c-2.13,3.58-.95,10.24,2.19,13.62,2.63,2.84,5.23,2.28,8,.36-1.57,4.71-4.57,4.13-7.77,1.94-3.42-2.35-6.21-11-5-15C7216.78,2705.5,7216.78,2705.5,7218.92,2706.09Z" transform="translate(-6923 -2498)"/></svg>